<?xml version="1.0" standalone="no"?>
<!DOCTYPE svg PUBLIC "-//W3C//DTD SVG 1.1//EN" "http://www.w3.org/Graphics/SVG/1.1/DTD/svg11.dtd" >
<svg xmlns="http://www.w3.org/2000/svg" xmlns:xlink="http://www.w3.org/1999/xlink" version="1.1">
<metadata>
Created by FontForge 20170731 at Thu Jul 26 20:14:55 2012
 By Aleksey,,,
Copyright (c) 2008 by Process Type Foundry. All rights reserved.
</metadata>
<defs>
<font id="Klavika-BoldCondensedItalic" horiz-adv-x="450" >
  <font-face 
    font-family="Klavika Bold Condensed"
    font-weight="700"
    font-style="italic"
    font-stretch="normal"
    units-per-em="1000"
    panose-1="2 11 5 6 4 0 0 2 0 4"
    ascent="750"
    descent="-250"
    x-height="487"
    cap-height="666"
    bbox="-95 -316 1052 977"
    underline-thickness="80"
    underline-position="-260"
    slope="-10"
    unicode-range="U+0020-FB02"
  />
<missing-glyph horiz-adv-x="606" 
d="M85 0v666h466v-666h-466zM502 616h-340l340 -527v527zM134 576v-527h339z" />
    <glyph glyph-name="fi" unicode="fi" horiz-adv-x="447" 
d="M18 12l64 361h-46l20 114h46l15 86q12 72 52 102.5t111 30.5q83 0 145 -32l-27 -102q-47 20 -105 20q-22 0 -33 -9t-15 -32l-11 -64h155l60 9l-87 -496h-132l65 373h-81l-66 -373q-12 -69 -46 -122.5t-76 -84.5l-87 72q65 65 79 147z" />
    <glyph glyph-name="fl" unicode="fl" horiz-adv-x="465" 
d="M214 373l-66 -373q-12 -69 -46 -122.5t-76 -84.5l-87 72q65 65 79 145l64 363h-46l20 114h46l15 86q12 69 48 101t103 32q54 0 115 -18l121 18l-124 -706h-132l103 586q-24 6 -61 6t-44 -36l-12 -69h67l-20 -114h-67z" />
    <glyph glyph-name=".notdef" horiz-adv-x="606" 
d="M85 0v666h466v-666h-466zM502 616h-340l340 -527v527zM134 576v-527h339z" />
    <glyph glyph-name=".null" horiz-adv-x="0" 
 />
    <glyph glyph-name="nonmarkingreturn" horiz-adv-x="333" 
 />
    <glyph glyph-name="space" unicode=" " horiz-adv-x="190" 
 />
    <glyph glyph-name="exclam" unicode="!" horiz-adv-x="227" 
d="M147 221h-84l5 169l49 276h133l-49 -276zM132 0h-132l27 154h132z" />
    <glyph glyph-name="quotedbl" unicode="&#x22;" horiz-adv-x="383" 
d="M67 410l45 256h118l-45 -256h-118zM252 410l45 256h118l-45 -256h-118z" />
    <glyph glyph-name="numbersign" unicode="#" horiz-adv-x="549" 
d="M268 0l39 180h-105l-39 -180h-106l39 180h-80l21 94h80l29 130h-81l20 94h81l38 168h106l-38 -168h105l38 168h106l-38 -168h78l-20 -94h-78l-29 -130h78l-19 -94h-80l-39 -180h-106zM252 404l-29 -130h105l29 130h-105z" />
    <glyph glyph-name="dollar" unicode="$" horiz-adv-x="390" 
d="M82 -83l15 88q-48 4 -87 23l26 113q52 -21 102 -21t67.5 22.5t17.5 71.5q0 19 -13 32t-57 44q-51 36 -71 66t-20 69q0 107 36 163t114 70l20 111h105l-20 -109q46 -5 93 -26l-27 -111q-61 23 -114 23q-35 0 -51 -16.5t-16 -50.5q0 -6 0.5 -11t1.5 -9t4 -8t4.5 -6.5t8 -8
t10 -8t14 -10.5t16.5 -13q66 -51 83.5 -76t17.5 -72q0 -40 -7 -76t-23.5 -72.5t-49.5 -63t-79 -36.5l-16 -92h-105z" />
    <glyph glyph-name="percent" unicode="%" horiz-adv-x="770" 
d="M189 35l332 643l86 -48l-332 -642zM360 542l-20 -113q-11 -64 -47.5 -97.5t-110.5 -33.5q-59 0 -89.5 28t-30.5 75q0 11 3 28l21 118q12 69 47.5 100t113.5 31q57 0 86.5 -28t29.5 -77q0 -17 -3 -31zM195 559l-25 -142q-4 -28 26 -28q32 0 36 28l25 141q5 29 -26 29
q-32 0 -36 -28zM731 232l-20 -113q-11 -64 -47.5 -97.5t-110.5 -33.5q-59 0 -89.5 28t-30.5 75q0 11 3 28l21 118q12 69 47.5 100t113.5 31q57 0 86.5 -28t29.5 -77q0 -17 -3 -31zM566 249l-25 -142q-4 -28 26 -28q32 0 36 28l25 141q5 29 -26 29q-32 0 -36 -28z" />
    <glyph glyph-name="ampersand" unicode="&#x26;" horiz-adv-x="600" 
d="M402 379q0 -52 -32 -90h90q51 0 97 22l25 -87q-51 -29 -129 -34q-25 -42 -51 -74t-61 -62.5t-79 -47t-94 -16.5q-66 0 -105 31.5t-39 96.5q0 21 4 41l30 171q29 167 183 167q73 0 117 -29t44 -89zM254 190l-25 99q25 9 40.5 27t15.5 41q0 38 -39 38q-45 0 -53 -48
l-35 -200q-3 -15 -3 -23q0 -29 33 -29q75 0 131 95h-65z" />
    <glyph glyph-name="quotesingle" unicode="'" horiz-adv-x="198" 
d="M67 410l45 256h118l-45 -256h-118z" />
    <glyph glyph-name="parenleft" unicode="(" horiz-adv-x="320" 
d="M303 800l91 -69q-104 -137 -155.5 -256.5t-51.5 -263.5q0 -130 60 -295l-109 -52q-84 168 -84 333q0 174 62.5 319t186.5 284z" />
    <glyph glyph-name="parenright" unicode=")" horiz-adv-x="321" 
d="M42 -136l-91 69q104 137 155.5 256.5t51.5 263.5q0 130 -60 295l109 52q84 -168 84 -333q0 -174 -62.5 -319t-186.5 -284z" />
    <glyph glyph-name="asterisk" unicode="*" horiz-adv-x="378" 
d="M309 686l51 -42l-53 -69h87l-12 -70h-91l34 -85l-67 -26l-31 79l-59 -79l-52 39l55 72h-87l12 70h89l-34 84l68 27l31 -81z" />
    <glyph glyph-name="plus" unicode="+" horiz-adv-x="452" 
d="M432 286h-122v-151h-128v151h-122v114h122v151h128v-151h122v-114z" />
    <glyph glyph-name="comma" unicode="," horiz-adv-x="210" 
d="M155 154l-28 -155l-96 -134l-53 36l59 99h-41l27 154h132z" />
    <glyph glyph-name="hyphen" unicode="-" horiz-adv-x="299" 
d="M254 225h-216l20 115h216z" />
    <glyph glyph-name="period" unicode="." horiz-adv-x="214" 
d="M132 0h-132l27 154h132z" />
    <glyph glyph-name="slash" unicode="/" horiz-adv-x="404" 
d="M450 676l-348 -793h-138l348 793h138z" />
    <glyph glyph-name="zero" unicode="0" horiz-adv-x="465" 
d="M469 499l-59 -334q-31 -177 -223 -177q-81 0 -124 38t-43 102q0 19 3 37l59 334q31 179 222 179q83 0 125.5 -38t42.5 -103q0 -20 -3 -38zM205 104q59 0 69 55l62 351q9 52 -50 52q-60 0 -69 -51l-62 -352q-5 -26 8 -40.5t42 -14.5z" />
    <glyph glyph-name="one" unicode="1" horiz-adv-x="329" 
d="M234 0h-134l86 487l-87 -58l-54 90l196 147h110z" />
    <glyph glyph-name="two" unicode="2" horiz-adv-x="402" 
d="M301 264l-145 -148h196l-20 -116h-349l18 105l198 228q27 32 37.5 45t20.5 34t14 47l8 46q10 57 -56 57q-57 0 -132 -25l-4 111q65 30 166 30q164 0 164 -130q0 -23 -4 -43l-5 -28q-13 -71 -32.5 -114t-74.5 -99z" />
    <glyph glyph-name="three" unicode="3" horiz-adv-x="392" 
d="M87 395h91q35 0 51 13t21 40l10 57q6 33 -10.5 46t-52.5 13q-47 0 -100 -14v107q58 21 153 21q150 0 150 -120q0 -22 -4 -42l-11 -62q-8 -47 -30 -73.5t-65 -39.5q66 -16 66 -88q0 -13 -4 -37l-10 -58q-15 -85 -61 -127.5t-147 -42.5q-78 0 -144 28l27 108
q58 -22 112 -22q39 0 56.5 14t23.5 48l9 52q2 12 2 18q0 44 -53 44h-100z" />
    <glyph glyph-name="four" unicode="4" horiz-adv-x="452" 
d="M421 148h-74l-26 -148h-127l26 148h-218l19 108l266 410h151l-71 -404h73zM240 262l40 225l-136 -225h96z" />
    <glyph glyph-name="five" unicode="5" horiz-adv-x="398" 
d="M222 175l7 41q2 14 2 19q0 25 -14.5 36t-48.5 11h-116l68 384h300l-21 -116h-165l-27 -152h13q76 0 112.5 -30.5t36.5 -97.5q0 -19 -5 -49l-9 -51q-17 -94 -68.5 -138t-148.5 -44q-86 0 -137 16l24 113q49 -13 103 -13q48 0 68 17t26 54z" />
    <glyph glyph-name="six" unicode="6" horiz-adv-x="435" 
d="M182 -12q-77 0 -119 37.5t-42 106.5q0 21 4 44l56 317q17 98 69.5 141.5t157.5 43.5q81 0 145 -24l-23 -107q-55 20 -116 20q-50 0 -71.5 -18t-30.5 -67l-17 -96q39 18 89 18q61 0 95 -31.5t34 -88.5q0 -16 -4 -40l-15 -85q-15 -88 -64.5 -129.5t-147.5 -41.5zM196 98
q55 0 64 49l17 97q9 49 -41 49q-30 0 -60 -14l-23 -131q-1 -7 -1 -14q0 -36 44 -36z" />
    <glyph glyph-name="seven" unicode="7" horiz-adv-x="390" 
d="M428 569l-290 -569h-141l285 551h-201l20 115h344z" />
    <glyph glyph-name="eight" unicode="8" horiz-adv-x="452" 
d="M452 517l-9 -52q-16 -92 -94 -126q62 -37 62 -106q0 -17 -3 -35l-8 -46q-15 -86 -67 -125t-153 -39q-75 0 -119.5 34t-44.5 96q0 17 3 35l8 46q9 53 34 86.5t74 53.5q-50 37 -50 100q0 15 3 31l8 47q14 84 59.5 122.5t146.5 38.5q153 0 153 -124q0 -18 -3 -37zM276 193
q2 14 2 23q0 20 -10.5 34t-36.5 30q-38 -20 -52.5 -37.5t-19.5 -49.5l-8 -45q-2 -12 -2 -16q0 -40 50 -40q59 0 69 56zM231 527l-11 -62q-2 -10 -2 -19q0 -30 34 -56q51 25 59 75l10 57q2 12 2 16q0 36 -39 36q-25 0 -36.5 -10.5t-16.5 -36.5z" />
    <glyph glyph-name="nine" unicode="9" horiz-adv-x="436" 
d="M281 678q77 0 119 -37.5t42 -106.5q0 -21 -4 -44l-56 -317q-17 -95 -67 -140t-151 -45q-81 0 -149 27l23 106q57 -22 114 -22q49 0 69.5 19t29.5 66l17 96q-39 -18 -89 -18q-61 0 -95 31.5t-34 88.5q0 16 4 40l15 85q16 88 64 129.5t148 41.5zM267 568q-55 0 -64 -49
l-17 -97q-9 -49 41 -49q30 0 60 14l23 131q1 7 1 14q0 36 -44 36z" />
    <glyph glyph-name="colon" unicode=":" horiz-adv-x="223" 
d="M132 0h-132l27 154h132zM182 282h-132l27 154h132z" />
    <glyph glyph-name="semicolon" unicode=";" horiz-adv-x="223" 
d="M182 282h-132l27 154h132zM159 154l-28 -155l-96 -134l-53 36l59 99h-41l27 154h132z" />
    <glyph glyph-name="less" unicode="&#x3c;" horiz-adv-x="436" 
d="M49 280v126l330 155l42 -111l-238 -107l238 -107l-42 -111z" />
    <glyph glyph-name="equal" unicode="=" horiz-adv-x="478" 
d="M440 382h-372v114h372v-114zM440 190h-372v115h372v-115z" />
    <glyph glyph-name="greater" unicode="&#x3e;" horiz-adv-x="436" 
d="M427 406v-126l-330 -155l-42 111l238 107l-238 107l42 111z" />
    <glyph glyph-name="question" unicode="?" horiz-adv-x="380" 
d="M167 210l-74 90l119 103q24 21 33.5 35t14.5 40l5 27q1 6 1 15q0 40 -57 40q-54 0 -97 -18l-17 108q60 28 151 28q155 0 155 -130q0 -20 -4 -42l-6 -35q-9 -49 -28 -81.5t-66 -71.5zM182 0h-132l27 154h132z" />
    <glyph glyph-name="at" unicode="@" horiz-adv-x="644" 
d="M526 106l19 -83q-72 -35 -176 -35q-150 0 -232 84t-82 234q0 174 84.5 273t235.5 99q118 0 188.5 -69.5t70.5 -184.5q0 -112 -47 -173.5t-133 -61.5q-65 0 -87 44q-30 -36 -75 -36q-33 0 -51 19.5t-18 51.5q0 9 2 21l20 110q9 50 35.5 71.5t76.5 21.5q69 0 126 -38
l-33 -188h9q78 0 78 154q0 80 -43 125t-126 45q-106 0 -158 -78.5t-52 -210.5q0 -224 220 -224q77 0 148 29zM359 286l22 120q-12 6 -24 6q-16 0 -19 -17l-19 -105q-3 -14 12 -14t28 10z" />
    <glyph glyph-name="A" unicode="A" horiz-adv-x="458" 
d="M377 666l35 -666h-137l1 135h-129l-45 -135h-144l265 666h154zM278 522l-89 -266h88z" />
    <glyph glyph-name="B" unicode="B" horiz-adv-x="451" 
d="M423 222l-12 -70q-13 -71 -63 -111.5t-139 -40.5h-209l117 666h213q128 0 128 -100q0 -18 -4 -38l-14 -79q-8 -41 -31 -65.5t-69 -38.5q86 -15 86 -93q0 -12 -3 -30zM300 437l13 74q2 12 2 17q0 24 -29 24h-51l-27 -156h45q40 0 47 41zM274 160l13 73q1 6 1 14
q0 35 -40 35h-61l-29 -168h59q49 0 57 46z" />
    <glyph glyph-name="C" unicode="C" horiz-adv-x="370" 
d="M202 471l-49 -278q-3 -17 -3 -29q0 -29 15.5 -42.5t51.5 -13.5q52 0 98 11v-111q-64 -20 -131 -20q-90 0 -132 41t-42 112q0 23 4 47l52 294q18 102 67 149t150 47q78 0 132 -21l-24 -114q-41 15 -90 15q-50 0 -70 -18.5t-29 -68.5z" />
    <glyph glyph-name="D" unicode="D" horiz-adv-x="477" 
d="M117 666h205q164 0 164 -136q0 -30 -6 -66l-48 -271q-19 -105 -70.5 -149t-153.5 -44h-208zM234 546l-75 -426h56q39 0 55.5 18t24.5 61l48 271q3 18 3 31q0 24 -12.5 34.5t-42.5 10.5h-57z" />
    <glyph glyph-name="E" unicode="E" horiz-adv-x="409" 
d="M332 0h-332l117 666h331l-21 -120h-193l-27 -150h176l-21 -120h-176l-27 -156h194z" />
    <glyph glyph-name="F" unicode="F" horiz-adv-x="391" 
d="M138 0h-138l117 666h333l-21 -120h-195l-30 -170h178l-21 -120h-178z" />
    <glyph glyph-name="G" unicode="G" horiz-adv-x="449" 
d="M205 465l-50 -283q-3 -18 -3 -29q0 -25 15.5 -37t51.5 -12q22 0 42 5l38 217h129l-55 -314q-73 -24 -167 -24q-90 0 -141 40t-51 115q0 24 4 44l51 290q19 109 68.5 155t161.5 46q104 0 171 -31l-25 -115q-74 26 -138 26q-50 0 -71.5 -20.5t-30.5 -72.5z" />
    <glyph glyph-name="H" unicode="H" horiz-adv-x="491" 
d="M401 0h-138l48 273h-125l-48 -273h-138l117 666h138l-48 -273h125l48 273h138z" />
    <glyph glyph-name="I" unicode="I" horiz-adv-x="234" 
d="M141 0h-138l117 666h138z" />
    <glyph glyph-name="J" unicode="J" horiz-adv-x="227" 
d="M-24 -207l-71 92q84 52 95 115l117 666h138l-118 -666q-12 -70 -48.5 -117t-112.5 -90z" />
    <glyph glyph-name="K" unicode="K" horiz-adv-x="476" 
d="M279 0l-71 340l161 326h158l-179 -331l79 -335h-148zM138 0h-138l117 666h138z" />
    <glyph glyph-name="L" unicode="L" horiz-adv-x="369" 
d="M302 0h-302l117 666h138l-96 -546h164z" />
    <glyph glyph-name="M" unicode="M" horiz-adv-x="636" 
d="M489 393l-124 -256h-133l-33 256l-70 -393h-137l135 666h145l48 -383l191 383h143l-100 -666h-133z" />
    <glyph glyph-name="N" unicode="N" horiz-adv-x="521" 
d="M296 0l-96 380l-67 -380h-133l117 666h134l97 -380l67 380h133l-117 -666h-135z" />
    <glyph glyph-name="O" unicode="O" horiz-adv-x="474" 
d="M478 471l-49 -278q-18 -102 -70 -153.5t-168 -51.5q-89 0 -131 41t-42 112q0 22 5 52l49 278q19 108 70.5 157.5t166.5 49.5q174 0 174 -152q0 -27 -5 -55zM289 181l54 306q3 15 3 27q0 23 -12.5 33.5t-43.5 10.5q-38 0 -55 -17t-23 -54l-54 -306q-3 -17 -3 -27
q0 -46 56 -46q37 0 54.5 18t23.5 55z" />
    <glyph glyph-name="P" unicode="P" horiz-adv-x="451" 
d="M180 241l-42 -241h-138l117 666h212q155 0 155 -124q0 -17 -5 -49l-15 -85q-15 -83 -63 -125t-144 -42h-77zM234 548l-33 -189h62q30 0 44 12.5t19 42.5l15 85q2 12 2 16q0 19 -11.5 26t-35.5 7h-62z" />
    <glyph glyph-name="Q" unicode="Q" horiz-adv-x="474" 
d="M329 -77l-26 -108q-114 26 -216 30l22 108q112 -1 220 -30zM478 471l-49 -278q-18 -102 -70 -153.5t-168 -51.5q-89 0 -131 41t-42 112q0 22 5 52l49 278q19 108 70.5 157.5t166.5 49.5q174 0 174 -152q0 -27 -5 -55zM289 181l54 306q3 15 3 27q0 23 -12.5 33.5
t-43.5 10.5q-38 0 -55 -17t-23 -54l-54 -306q-3 -17 -3 -27q0 -46 56 -46q37 0 54.5 18t23.5 55z" />
    <glyph glyph-name="R" unicode="R" horiz-adv-x="491" 
d="M180 243l-42 -243h-138l117 666h223q78 0 116.5 -29t38.5 -94q0 -19 -5 -47l-15 -84q-11 -60 -33 -94t-76 -54l73 -264h-153l-60 243h-46zM234 548l-33 -187h73q29 0 43.5 12t19.5 41l15 80q2 12 2 19q0 35 -44 35h-76z" />
    <glyph glyph-name="S" unicode="S" horiz-adv-x="391" 
d="M361 181q-18 -103 -68 -148t-150 -45q-88 0 -151 29l26 116q62 -25 119 -25q41 0 60 15.5t26 56.5q3 18 3 30q0 23 -11.5 35.5t-41.5 28.5q-60 32 -85 68.5t-25 90.5q0 32 8 78q16 95 59 131t134 36q39 0 86 -9t72 -22l-26 -115q-61 26 -115 26q-38 0 -53 -12t-21 -47
q-3 -15 -3 -26q0 -19 13 -33t50 -34q56 -31 79 -63.5t23 -85.5q0 -30 -8 -76z" />
    <glyph glyph-name="T" unicode="T" horiz-adv-x="380" 
d="M428 546h-117l-96 -546h-138l96 546h-116l21 120h371z" />
    <glyph glyph-name="U" unicode="U" horiz-adv-x="483" 
d="M378 666h138l-87 -490q-17 -93 -71 -140.5t-164 -47.5q-80 0 -125.5 42.5t-45.5 111.5q0 15 4 39l86 485h138l-87 -490q-2 -14 -2 -22q0 -46 54 -46q36 0 52.5 15.5t22.5 46.5z" />
    <glyph glyph-name="V" unicode="V" horiz-adv-x="417" 
d="M492 666l-255 -666h-151l-14 666h144l-17 -468l145 468h148z" />
    <glyph glyph-name="W" unicode="W" horiz-adv-x="676" 
d="M471 666l9 -414l128 414h141l-232 -666h-133l-15 434l-164 -434h-132l-1 666h138l-15 -414l151 414h125z" />
    <glyph glyph-name="X" unicode="X" horiz-adv-x="472" 
d="M544 666l-220 -338l103 -328h-138l-58 196l-123 -196h-149l224 345l-95 321h139l50 -199l122 199h145z" />
    <glyph glyph-name="Y" unicode="Y" horiz-adv-x="423" 
d="M503 666l-224 -426l-42 -240h-138l43 245l-78 421h150l23 -275l106 275h160z" />
    <glyph glyph-name="Z" unicode="Z" horiz-adv-x="409" 
d="M442 560l-275 -440h202l-21 -120h-343l-2 106l275 440h-202l21 120h345v-106z" />
    <glyph glyph-name="bracketleft" unicode="[" horiz-adv-x="279" 
d="M196 -128h-204l162 918h204l-18 -104h-72l-125 -710h72z" />
    <glyph glyph-name="backslash" unicode="\" horiz-adv-x="398" 
d="M172 -117l-68 793h130l68 -793h-130z" />
    <glyph glyph-name="bracketright" unicode="]" horiz-adv-x="279" 
d="M151 -128h-203l18 104h71l125 710h-71l18 104h204z" />
    <glyph glyph-name="asciicircum" unicode="^" horiz-adv-x="437" 
d="M312 666l120 -278l-110 -41l-76 200l-76 -200l-110 41l120 278h132z" />
    <glyph glyph-name="underscore" unicode="_" horiz-adv-x="323" 
d="M253 -140h-324l14 80h325z" />
    <glyph glyph-name="grave" unicode="`" horiz-adv-x="365" 
d="M338 612l-64 -75q-66 44 -119 93l78 84q55 -60 105 -102z" />
    <glyph glyph-name="a" unicode="a" horiz-adv-x="413" 
d="M10 141l38 216q13 76 55 108t122 32q98 0 187 -48l-79 -449h-109l-1 51q-52 -61 -121 -61q-50 0 -73 30.5t-23 78.5q0 22 4 42zM224 134l43 248q-19 7 -41 7q-23 0 -33 -9t-15 -34l-34 -193q-2 -12 -2 -18q0 -27 24 -27q23 0 58 26z" />
    <glyph glyph-name="b" unicode="b" horiz-adv-x="424" 
d="M415 363l-36 -205q-15 -86 -64 -127t-143 -41q-100 0 -176 32l117 664l136 20l-44 -251q54 42 115 42q47 0 72.5 -26.5t25.5 -73.5q0 -16 -3 -34zM188 357l-44 -252q20 -5 41 -5q51 0 62 59l32 181q6 36 -26 36q-29 0 -65 -19z" />
    <glyph glyph-name="c" unicode="c" horiz-adv-x="310" 
d="M138 -10q-132 0 -132 120q0 23 4 43l33 187q14 80 58.5 118.5t123.5 38.5q68 0 113 -21l-23 -106q-39 13 -79 13q-30 0 -44.5 -12t-19.5 -42l-33 -187q-7 -38 28 -38q46 0 95 19l8 -105q-52 -28 -132 -28z" />
    <glyph glyph-name="d" unicode="d" horiz-adv-x="434" 
d="M16 147l36 204q14 79 51.5 112.5t104.5 33.5q45 0 92 -20l37 209l136 20l-124 -706h-109l-3 38q-57 -48 -124 -48q-101 0 -101 111q0 25 4 46zM238 125l44 248q-22 8 -48 8q-27 0 -37.5 -9t-14.5 -32l-34 -193q-8 -43 27 -43q31 0 63 21z" />
    <glyph glyph-name="e" unicode="e" horiz-adv-x="362" 
d="M219 203l-76 -27l-8 -46q-5 -31 27 -31q50 0 134 45l25 -98q-90 -56 -188 -56q-65 0 -97 32.5t-32 90.5q0 21 4 46l30 170q30 168 189 168q61 0 100.5 -32.5t39.5 -89.5q0 -119 -148 -172zM163 288l29 10q55 18 55 63q0 31 -32 31q-34 0 -42 -45z" />
    <glyph glyph-name="f" unicode="f" horiz-adv-x="288" 
d="M363 686l-22 -105q-31 11 -60 11t-34 -30l-13 -75h86l-21 -114h-85l-66 -373q-12 -69 -46 -122.5t-76 -84.5l-87 72q65 65 79 147l64 361h-46l20 114h46l16 91q12 70 44.5 99t99.5 29q55 0 101 -20z" />
    <glyph glyph-name="g" unicode="g" horiz-adv-x="432" 
d="M206 -57l19 109q-59 -42 -117 -42q-48 0 -72 27t-24 73q0 16 4 38l32 181q17 94 58 131t136 37q101 0 187 -43l-93 -527q-24 -134 -181 -134q-90 0 -168 35l26 102q76 -30 130 -30q56 0 63 43zM241 142l41 233q-18 8 -43 8q-27 0 -40 -9t-17 -34l-32 -181q-7 -37 26 -37
q35 0 65 20z" />
    <glyph glyph-name="h" unicode="h" horiz-adv-x="422" 
d="M342 0h-132l61 346q4 27 -18 27q-26 0 -64 -20l-62 -353h-132l120 686l136 20l-44 -252q63 43 121 43q41 0 63 -20t22 -58q0 -14 -2 -28z" />
    <glyph glyph-name="i" unicode="i" horiz-adv-x="213" 
d="M128 0h-132l83 476l136 20zM226 557l-136 -20l25 147l136 20z" />
    <glyph glyph-name="j" unicode="j" horiz-adv-x="213" 
d="M215 496l-91 -519q-11 -60 -48 -103.5t-101 -80.5l-68 85q77 55 87 110l85 488zM226 557l-136 -20l25 147l136 20z" />
    <glyph glyph-name="k" unicode="k" horiz-adv-x="411" 
d="M177 246l127 251l139 -22l-131 -237l61 -238h-138zM127 0h-132l121 686l135 20z" />
    <glyph glyph-name="l" unicode="l" horiz-adv-x="212" 
d="M127 0h-132l121 686l135 20z" />
    <glyph glyph-name="m" unicode="m" horiz-adv-x="627" 
d="M337 0h-132l61 346q4 27 -18 27q-23 0 -59 -20l-62 -353h-132l83 475l114 21l5 -47q64 48 126 48q64 0 80 -48q62 48 130 48q41 0 63 -20t22 -58q0 -14 -2 -28l-69 -391h-132l61 346q4 27 -18 27q-23 0 -59 -20z" />
    <glyph glyph-name="n" unicode="n" horiz-adv-x="422" 
d="M342 0h-132l61 346q4 27 -18 27q-26 0 -64 -20l-62 -353h-132l83 475l114 21l5 -47q66 48 131 48q41 0 63 -20t22 -58q0 -14 -2 -28z" />
    <glyph glyph-name="o" unicode="o" horiz-adv-x="413" 
d="M176 -10q-73 0 -120.5 39.5t-47.5 109.5q0 21 3 37l26 148q15 88 60 130.5t133 42.5q74 0 123.5 -35t49.5 -104q0 -16 -3 -34l-27 -154q-15 -89 -59.5 -134.5t-137.5 -45.5zM237 148l33 186q10 53 -41 53q-26 0 -39.5 -11t-17.5 -36l-33 -186q-4 -23 7 -38.5t36 -15.5
q47 0 55 48z" />
    <glyph glyph-name="p" unicode="p" horiz-adv-x="431" 
d="M415 346l-37 -210q-14 -79 -51.5 -112.5t-104.5 -33.5q-45 0 -92 20l-37 -207l-136 -20l122 692l111 17l3 -43q57 48 124 48q103 0 103 -104q0 -19 -5 -47zM192 360l-44 -248q22 -8 48 -8q27 0 37.5 9.5t14.5 32.5l34 194q8 41 -27 41q-31 0 -63 -21z" />
    <glyph glyph-name="q" unicode="q" horiz-adv-x="432" 
d="M12 124l36 205q17 95 62.5 131.5t137.5 36.5q97 0 181 -43l-115 -651l-136 -20l44 249q-21 -18 -53.5 -30t-61.5 -12q-47 0 -72.5 27.5t-25.5 73.5q0 18 3 33zM238 125l45 253q-20 5 -41 5q-52 0 -62 -55l-33 -186q-6 -36 26 -36q31 0 65 19z" />
    <glyph glyph-name="r" unicode="r" horiz-adv-x="266" 
d="M278 497l17 -127q-57 -16 -110 -43l-58 -327h-132l84 476l112 20l1 -68q36 53 86 69z" />
    <glyph glyph-name="s" unicode="s" horiz-adv-x="321" 
d="M291 137q-13 -75 -53 -111t-114 -36q-75 0 -134 27l26 104q44 -22 100 -22q23 0 32 7.5t13 29.5q1 5 1.5 9.5t-0.5 8.5t-1.5 6.5t-3 5.5t-4 4.5t-6 4t-6.5 3.5l-8 4t-9 4q-50 24 -69 49.5t-19 64.5q0 20 7 62q12 71 47.5 103t107.5 32q79 0 136 -30l-26 -104
q-50 25 -94 25q-22 0 -31 -7.5t-13 -28.5q-3 -18 2.5 -26.5t25.5 -18.5q56 -29 77 -51.5t21 -65.5q0 -27 -5 -53z" />
    <glyph glyph-name="t" unicode="t" horiz-adv-x="290" 
d="M185 102q33 0 62 12l5 -99q-52 -25 -115 -25q-50 0 -79.5 26.5t-29.5 72.5q0 13 2 25l46 259h-51l20 114h51l22 126l135 11l-24 -137h92l-23 -114h-90l-43 -248q-4 -23 20 -23z" />
    <glyph glyph-name="u" unicode="u" horiz-adv-x="418" 
d="M75 482l133 8l-61 -350q-5 -28 18 -28q27 0 59 18l62 352l133 8l-86 -490h-112l-4 38q-71 -48 -129 -48q-41 0 -62 23.5t-21 61.5q0 11 3 27z" />
    <glyph glyph-name="v" unicode="v" horiz-adv-x="379" 
d="M190 140l61 209q13 47 13 77q0 23 -4 50l130 20q9 -38 9 -68q0 -38 -20 -90l-130 -338h-155l-61 472l131 20z" />
    <glyph glyph-name="w" unicode="w" horiz-adv-x="563" 
d="M180 168l80 190l-22 109l110 22l54 -327l33 191q4 23 4 45q0 32 -8 78l127 20q9 -36 9 -75t-8 -68l-95 -353h-129l-41 202l-85 -202h-125q-19 302 -56 472l125 19q28 -137 28 -268q0 -36 -1 -55z" />
    <glyph glyph-name="x" unicode="x" horiz-adv-x="381" 
d="M424 487l-171 -249l87 -238h-130l-42 124l-72 -124h-136l162 246l-81 230l125 20l42 -145l76 136h140z" />
    <glyph glyph-name="y" unicode="y" horiz-adv-x="378" 
d="M119 0h-34l-51 472l133 20l23 -360l62 217q13 47 13 77q0 23 -4 50l130 20q9 -40 9 -68q0 -38 -20 -90l-126 -326q-34 -90 -75.5 -140.5t-126.5 -88.5l-51 98q84 38 118 119z" />
    <glyph glyph-name="z" unicode="z" horiz-adv-x="342" 
d="M42 380l18 107h290l2 -92l-204 -288h158l-18 -107h-292l-4 92l203 288h-153z" />
    <glyph glyph-name="braceleft" unicode="{" horiz-adv-x="307" 
d="M48 386h25q22 0 31 8t12 26l42 238q13 75 46 103.5t98 28.5h84l-16 -104h-35q-22 0 -32 -7.5t-14 -31.5l-37 -210q-9 -52 -33 -76t-76 -29q75 -6 75 -76q0 -12 -3 -28l-37 -210q-2 -12 -2 -14q0 -25 34 -25h35l-17 -105h-68q-118 0 -118 106q0 22 4 43l38 215q2 12 2 16
q0 25 -32 25h-25z" />
    <glyph glyph-name="bar" unicode="|" horiz-adv-x="340" 
d="M250 -126h-130v916h130v-916z" />
    <glyph glyph-name="braceright" unicode="}" horiz-adv-x="307" 
d="M286 278h-25q-22 0 -31 -8t-12 -26l-42 -238q-13 -75 -46 -103.5t-98 -28.5h-84l16 104h35q22 0 32 7.5t14 31.5l37 210q9 52 33 76t76 29q-75 6 -75 76q0 12 3 28l37 210q2 12 2 14q0 25 -34 25h-35l17 105h68q118 0 118 -106q0 -22 -4 -43l-38 -215q-2 -12 -2 -16
q0 -25 32 -25h25z" />
    <glyph glyph-name="asciitilde" unicode="~" horiz-adv-x="431" 
d="M321 248q-36 0 -80 25q-3 2 -16 10t-18 10.5t-13.5 5.5t-15.5 3q-10 0 -17 -8t-9.5 -17t-7.5 -29l-94 30q10 161 111 161q40 0 81 -24q6 -3 14.5 -8.5t12 -7.5t9.5 -5.5t9.5 -4.5t7.5 -2t8 -1q11 0 17.5 8.5t8 17t4.5 27.5l90 -32q-1 -76 -27 -117.5t-75 -41.5z" />
    <glyph glyph-name="uni00A0" unicode="&#xa0;" horiz-adv-x="190" 
 />
    <glyph glyph-name="exclamdown" unicode="&#xa1;" horiz-adv-x="232" 
d="M77 269h84l-5 -169l-53 -297h-133l53 297zM90 487h132l-27 -154h-132z" />
    <glyph glyph-name="cent" unicode="&#xa2;" horiz-adv-x="360" 
d="M94 0l18 98q-74 23 -74 112q0 25 4 45l29 164q22 129 127 151l18 96h112l-18 -95q37 -7 56 -16l-23 -106q-39 13 -79 13q-30 0 -44.5 -12t-19.5 -42l-29 -164q-1 -7 -1 -12q0 -28 29 -28q46 0 95 19l8 -105q-28 -15 -79 -24l-17 -94h-112z" />
    <glyph glyph-name="sterling" unicode="&#xa3;" horiz-adv-x="447" 
d="M37 268l20 112h76l22 125q16 91 62 132t129 41q84 0 136 -27l-23 -104q-41 16 -96 16q-36 0 -52.5 -16.5t-24.5 -58.5l-19 -108h135l-19 -112h-138q-27 -97 -92 -152h222l-20 -116h-365l16 93q79 75 105 175h-74z" />
    <glyph glyph-name="currency" unicode="&#xa4;" horiz-adv-x="497" 
d="M510 529l-66 -56q7 -21 7 -48q0 -23 -4 -43l-17 -97q-11 -57 -38 -96l48 -58l-91 -78l-55 66q-30 -9 -67 -9q-38 0 -62 8l-74 -63l-71 85l67 58q-5 22 -5 44t4 43l17 97q9 56 37 95l-46 56l92 78l52 -64q35 10 68 10q32 0 61 -8l74 63zM302 262l25 143q8 46 -40 46
t-56 -46l-25 -143q-1 -6 -1 -11q0 -35 41 -35q48 0 56 46z" />
    <glyph glyph-name="yen" unicode="&#xa5;" horiz-adv-x="455" 
d="M52 313l18 102h61l-37 251h130l26 -291l107 291h140l-123 -251h61l-18 -102h-93l-34 -71h114l-18 -102h-115l-24 -140h-134l24 140h-116l18 102h116l1 3l-10 68h-94z" />
    <glyph glyph-name="brokenbar" unicode="&#xa6;" horiz-adv-x="340" 
d="M250 401h-130v389h130v-389zM120 263h130v-389h-130v389z" />
    <glyph glyph-name="section" unicode="&#xa7;" horiz-adv-x="485" 
d="M231 28l-109 -28q-50 212 -50 382q0 82 12 146q14 79 52.5 114.5t113.5 35.5q69 0 122 -24l-23 -94q-57 19 -88 19q-48 0 -56 -46q-14 -74 -14 -164q0 -143 40 -341zM259 463l109 28q50 -212 50 -382q0 -81 -12 -146q-14 -79 -52.5 -114.5t-113.5 -35.5q-69 0 -122 24
l23 94q57 -19 88 -19q48 0 56 46q14 74 14 164q0 143 -40 341z" />
    <glyph glyph-name="dieresis" unicode="&#xa8;" horiz-adv-x="427" 
d="M242 544h-102l23 129h102zM387 544h-102l23 129h102z" />
    <glyph glyph-name="copyright" unicode="&#xa9;" horiz-adv-x="783" 
d="M62 333q0 146 95.5 244.5t247.5 98.5t247.5 -98.5t95.5 -244.5q0 -145 -95.5 -244t-247.5 -99t-247.5 99t-95.5 244zM129 333q0 -124 73.5 -204.5t202.5 -80.5t202.5 80.5t73.5 204.5t-73.5 204.5t-202.5 80.5t-202.5 -80.5t-73.5 -204.5zM415 160q-139 0 -139 135v79
q0 135 139 135q50 0 93 -16l-8 -79q-36 10 -72 10q-26 0 -36.5 -12t-10.5 -37v-81q0 -25 10.5 -37t36.5 -12q36 0 72 10l8 -79q-43 -16 -93 -16z" />
    <glyph glyph-name="ordfeminine" unicode="&#xaa;" horiz-adv-x="335" 
d="M82 442l25 142q9 52 37 73t87 21q58 0 113 -31l-51 -287h-71l-1 29q-35 -35 -74 -35q-32 0 -49.5 18t-17.5 49q0 11 2 21zM220 437l29 162q-10 4 -22 4q-16 0 -23 -5.5t-9 -19.5l-22 -124q-5 -25 16 -25q15 0 31 8z" />
    <glyph glyph-name="guillemotleft" unicode="&#xab;" horiz-adv-x="522" 
d="M174 260l57 -159l-120 -41l-76 204l128 204l106 -66zM389 260l57 -159l-120 -41l-76 204l128 204l106 -66z" />
    <glyph glyph-name="logicalnot" unicode="&#xac;" horiz-adv-x="477" 
d="M445 211h-128v151h-244v114h372v-265z" />
    <glyph glyph-name="registered" unicode="&#xae;" horiz-adv-x="422" 
d="M75 515q0 77 50 129t130 52q81 0 131 -52t50 -129t-50 -129.5t-131 -52.5q-80 0 -130 52.5t-50 129.5zM123 515q0 -58 32 -99.5t100 -41.5t100.5 41.5t32.5 99.5t-32.5 99t-100.5 41t-100 -41t-32 -99zM284 436l-31 54h-15v-54h-46v166h83q47 0 47 -48v-16q0 -30 -22 -41
l37 -61h-53zM277 538v16q0 11 -13 11h-26v-39h26q13 0 13 12z" />
    <glyph glyph-name="macron" unicode="&#xaf;" horiz-adv-x="417" 
d="M361 546h-237l18 100h237z" />
    <glyph glyph-name="degree" unicode="&#xb0;" horiz-adv-x="338" 
d="M356 572q0 -68 -41 -110.5t-113 -42.5q-54 0 -84 30t-30 75q0 71 41 112.5t114 41.5q53 0 83 -28.5t30 -77.5zM211 486q31 0 48.5 24t17.5 57q0 44 -46 44q-30 0 -46.5 -22t-16.5 -58q0 -45 43 -45z" />
    <glyph glyph-name="plusminus" unicode="&#xb1;" horiz-adv-x="462" 
d="M412 306h-122v-131h-128v131h-122v114h122v131h128v-131h122v-114zM412 0h-372v110h372v-110z" />
    <glyph glyph-name="twosuperior" unicode="&#xb2;" horiz-adv-x="373" 
d="M311 555l-73 -61h117l-16 -86h-253l14 76l111 98q22 20 31.5 29.5t19 24.5t12.5 33l3 17q4 19 -7 28.5t-35 9.5q-40 0 -77 -14l-6 88q51 21 112 21q121 0 121 -96q0 -13 -3 -30l-3 -17q-7 -42 -20 -67t-48 -54z" />
    <glyph glyph-name="threesuperior" unicode="&#xb3;" horiz-adv-x="346" 
d="M153 649h63q34 0 39 33l3 17q7 38 -38 38q-38 0 -67 -9l4 76q40 15 94 15q130 0 109 -110l-3 -16q-7 -34 -18.5 -51t-43.5 -29q51 -17 39 -85l-4 -23q-9 -55 -41 -81t-94 -26q-60 0 -108 17l19 79q36 -13 78 -13q23 0 34 8t15 28l3 16q6 37 -34 37h-63z" />
    <glyph glyph-name="acute" unicode="&#xb4;" horiz-adv-x="370" 
d="M202 537l-49 84q87 54 138 93l54 -91q-49 -33 -143 -86z" />
    <glyph glyph-name="mu" unicode="&#xb5;" horiz-adv-x="418" 
d="M75 482l133 8l-62 -355q-4 -26 18 -26q24 0 60 19l62 354l133 8l-85 -490h-113l-4 38q-45 -33 -97 -44l-33 -191l-135 -20z" />
    <glyph glyph-name="paragraph" unicode="&#xb6;" horiz-adv-x="485" 
d="M65 390q0 132 70 204t196 72l-79 -448q-85 0 -136 45t-51 127zM209 -207l-61 82q37 27 56.5 43t38.5 42.5t24 55.5l115 650h118l-113 -643q-13 -78 -54 -127t-124 -103z" />
    <glyph glyph-name="periodcentered" unicode="&#xb7;" horiz-adv-x="215" 
d="M172 241h-132l27 154h132z" />
    <glyph glyph-name="cedilla" unicode="&#xb8;" horiz-adv-x="342" 
d="M88 0h64l-11 -42l12 -2q62 -10 62 -66q0 -44 -31.5 -70.5t-83.5 -26.5q-42 0 -79 14l15 58q18 -8 40 -8q33 0 33 24q0 17 -27 22l-25 5z" />
    <glyph glyph-name="onesuperior" unicode="&#xb9;" horiz-adv-x="314" 
d="M270 410h-104l49 275l-67 -31l-33 66l144 91h82z" />
    <glyph glyph-name="ordmasculine" unicode="&#xba;" horiz-adv-x="316" 
d="M174 354q-46 0 -71 24t-25 61q0 8 2 20l20 114q10 54 38.5 79.5t91.5 25.5q47 0 73 -22t26 -61q0 -12 -2 -22l-20 -114q-19 -105 -133 -105zM217 454l22 124q4 25 -21 25t-29 -24l-22 -125q-4 -25 20 -25q26 0 30 25z" />
    <glyph glyph-name="guillemotright" unicode="&#xbb;" horiz-adv-x="522" 
d="M350 268l-57 159l120 41l76 -204l-128 -204l-106 66zM135 268l-57 159l120 41l76 -204l-128 -204l-106 66z" />
    <glyph glyph-name="onequarter" unicode="&#xbc;" horiz-adv-x="800" 
d="M709 82h-51l-14 -82h-92l14 82h-159l12 67l171 252h124l-43 -244h51zM579 157l27 150l-95 -150h68zM170 -6l376 697l72 -36l-378 -699zM261 265h-104l49 275l-67 -31l-33 66l144 91h82z" />
    <glyph glyph-name="onehalf" unicode="&#xbd;" horiz-adv-x="824" 
d="M171 -6l376 697l72 -36l-378 -699zM262 265h-104l49 275l-67 -31l-33 66l144 91h82zM686 147l-73 -61h117l-16 -86h-253l14 76l111 98q22 20 31.5 29.5t19 24.5t12.5 33l3 17q4 19 -7 28.5t-35 9.5q-40 0 -77 -14l-6 88q51 21 112 21q121 0 121 -96q0 -13 -3 -30l-3 -17
q-7 -42 -20 -67t-48 -54z" />
    <glyph glyph-name="threequarters" unicode="&#xbe;" horiz-adv-x="803" 
d="M712 82h-51l-14 -82h-92l14 82h-159l12 67l171 252h124l-43 -244h51zM582 157l27 150l-95 -150h68zM173 -6l376 697l72 -36l-378 -699zM128 506h63q34 0 39 33l3 17q7 38 -38 38q-39 0 -67 -9l4 76q40 15 94 15q130 0 109 -110l-3 -16q-7 -34 -18.5 -51t-43.5 -29
q51 -17 39 -85l-4 -23q-9 -55 -41 -81t-94 -26q-60 0 -108 17l19 79q36 -13 78 -13q23 0 34 8t15 28l3 16q6 37 -34 37h-63z" />
    <glyph glyph-name="questiondown" unicode="&#xbf;" horiz-adv-x="396" 
d="M201 487h132l-27 -154h-132zM216 261l74 -90l-119 -103q-24 -21 -33.5 -35t-14.5 -40l-5 -27q-1 -6 -1 -15q0 -40 57 -40q54 0 97 18l17 -108q-60 -28 -151 -28q-155 0 -155 130q0 20 4 42l6 35q9 49 28 81.5t66 71.5z" />
    <glyph glyph-name="Agrave" unicode="&#xc0;" horiz-adv-x="458" 
d="M377 666l35 -666h-137l1 135h-129l-45 -135h-144l265 666h154zM278 522l-89 -266h88zM378 782l-64 -75q-74 49 -116 88l71 84q32 -32 109 -97z" />
    <glyph glyph-name="Aacute" unicode="&#xc1;" horiz-adv-x="458" 
d="M377 666l35 -666h-137l1 135h-129l-45 -135h-144l265 666h154zM278 522l-89 -266h88zM297 707l-49 84q82 51 131 88l54 -91q-53 -36 -136 -81z" />
    <glyph glyph-name="Acircumflex" unicode="&#xc2;" horiz-adv-x="458" 
d="M377 666l35 -666h-137l1 135h-129l-45 -135h-144l265 666h154zM278 522l-89 -266h88zM443 770l-63 -63q-47 36 -66 54q-16 -12 -86 -54l-46 69q17 12 68.5 47t81.5 56q23 -24 111 -109z" />
    <glyph glyph-name="Atilde" unicode="&#xc3;" horiz-adv-x="458" 
d="M377 666l35 -666h-137l1 135h-129l-45 -135h-144l265 666h154zM278 522l-89 -266h88zM313 725q-31 20 -39 20q-19 0 -43 -36l-58 40q27 52 49 73t59 21q28 0 56 -19q29 -20 39 -20q12 0 19.5 7.5t18.5 26.5l58 -37q-23 -46 -46 -70t-57 -24q-30 0 -56 18z" />
    <glyph glyph-name="Adieresis" unicode="&#xc4;" horiz-adv-x="458" 
d="M377 666l35 -666h-137l1 135h-129l-45 -135h-144l265 666h154zM278 522l-89 -266h88zM285 712h-106l23 129h106zM434 712h-106l23 129h106z" />
    <glyph glyph-name="Aring" unicode="&#xc5;" horiz-adv-x="458" 
d="M396 719q0 -33 -19 -63l35 -656h-137l1 135h-129l-45 -135h-144l261 657q-6 13 -6 31q0 48 28.5 75.5t75.5 27.5q37 0 58 -19.5t21 -52.5zM278 522l-89 -266h88zM298 666q18 0 28 13.5t10 34.5q0 26 -25 26q-18 0 -28.5 -13.5t-10.5 -34.5q0 -26 26 -26z" />
    <glyph glyph-name="AE" unicode="&#xc6;" horiz-adv-x="614" 
d="M-42 0l265 666h430l-21 -120h-249l8 -150h197l-21 -120h-170l8 -156h153l-21 -120h-262l1 135h-129l-45 -135h-144zM278 522l-89 -266h88z" />
    <glyph glyph-name="Ccedilla" unicode="&#xc7;" horiz-adv-x="370" 
d="M202 471l-49 -278q-3 -17 -3 -29q0 -29 15.5 -42.5t51.5 -13.5q52 0 98 11v-111q-56 -17 -120 -20l-8 -30l12 -2q62 -10 62 -66q0 -44 -31.5 -70.5t-83.5 -26.5q-42 0 -79 14l15 58q18 -8 40 -8q33 0 33 24q0 17 -27 22l-25 5l28 85q-121 21 -121 148q0 23 4 47l52 294
q18 102 67 149t150 47q78 0 132 -21l-24 -114q-41 15 -90 15q-50 0 -70 -18.5t-29 -68.5z" />
    <glyph glyph-name="Egrave" unicode="&#xc8;" horiz-adv-x="409" 
d="M332 0h-332l117 666h331l-21 -120h-193l-27 -150h176l-21 -120h-176l-27 -156h194zM368 782l-64 -75q-74 49 -116 88l71 84q32 -32 109 -97z" />
    <glyph glyph-name="Eacute" unicode="&#xc9;" horiz-adv-x="409" 
d="M332 0h-332l117 666h331l-21 -120h-193l-27 -150h176l-21 -120h-176l-27 -156h194zM257 707l-49 84q82 51 131 88l54 -91q-53 -36 -136 -81z" />
    <glyph glyph-name="Ecircumflex" unicode="&#xca;" horiz-adv-x="409" 
d="M332 0h-332l117 666h331l-21 -120h-193l-27 -150h176l-21 -120h-176l-27 -156h194zM437 770l-63 -63q-47 36 -66 54q-16 -12 -86 -54l-46 69q17 12 68.5 47t81.5 56q23 -24 111 -109z" />
    <glyph glyph-name="Edieresis" unicode="&#xcb;" horiz-adv-x="409" 
d="M332 0h-332l117 666h331l-21 -120h-193l-27 -150h176l-21 -120h-176l-27 -156h194zM275 712h-106l23 129h106zM424 712h-106l23 129h106z" />
    <glyph glyph-name="Igrave" unicode="&#xcc;" horiz-adv-x="234" 
d="M141 0h-138l117 666h138zM272 782l-64 -75q-74 49 -116 88l71 84q32 -32 109 -97z" />
    <glyph glyph-name="Iacute" unicode="&#xcd;" horiz-adv-x="234" 
d="M141 0h-138l117 666h138zM189 707l-49 84q82 51 131 88l54 -91q-53 -36 -136 -81z" />
    <glyph glyph-name="Icircumflex" unicode="&#xce;" horiz-adv-x="234" 
d="M141 0h-138l117 666h138zM340 770l-63 -63q-47 36 -66 54q-16 -12 -86 -54l-46 69q17 12 68.5 47t81.5 56q23 -24 111 -109z" />
    <glyph glyph-name="Idieresis" unicode="&#xcf;" horiz-adv-x="234" 
d="M141 0h-138l117 666h138zM176 712h-106l23 129h106zM325 712h-106l23 129h106z" />
    <glyph glyph-name="Eth" unicode="&#xd0;" horiz-adv-x="495" 
d="M27 276l20 115h40l49 275h208q83 0 122 -33t39 -103q0 -30 -6 -66l-48 -271q-18 -105 -70 -149t-154 -44h-208l48 276h-40zM253 546l-28 -155h64l-20 -115h-64l-27 -156h56q39 0 55.5 18t24.5 61l48 271q3 18 3 31q0 24 -12.5 34.5t-42.5 10.5h-57z" />
    <glyph glyph-name="Ntilde" unicode="&#xd1;" horiz-adv-x="521" 
d="M296 0l-96 380l-67 -380h-133l117 666h134l97 -380l67 380h133l-117 -666h-135zM328 725q-31 20 -39 20q-19 0 -43 -36l-58 40q27 52 49 73t59 21q28 0 56 -19q29 -20 39 -20q12 0 19.5 7.5t18.5 26.5l58 -37q-23 -46 -46 -70t-57 -24q-30 0 -56 18z" />
    <glyph glyph-name="Ograve" unicode="&#xd2;" horiz-adv-x="474" 
d="M478 471l-49 -278q-18 -102 -70 -153.5t-168 -51.5q-89 0 -131 41t-42 112q0 22 5 52l49 278q19 108 70.5 157.5t166.5 49.5q174 0 174 -152q0 -27 -5 -55zM289 181l54 306q3 15 3 27q0 23 -12.5 33.5t-43.5 10.5q-38 0 -55 -17t-23 -54l-54 -306q-3 -17 -3 -27
q0 -46 56 -46q37 0 54.5 18t23.5 55zM389 782l-64 -75q-74 49 -116 88l71 84q32 -32 109 -97z" />
    <glyph glyph-name="Oacute" unicode="&#xd3;" horiz-adv-x="474" 
d="M478 471l-49 -278q-18 -102 -70 -153.5t-168 -51.5q-89 0 -131 41t-42 112q0 22 5 52l49 278q19 108 70.5 157.5t166.5 49.5q174 0 174 -152q0 -27 -5 -55zM289 181l54 306q3 15 3 27q0 23 -12.5 33.5t-43.5 10.5q-38 0 -55 -17t-23 -54l-54 -306q-3 -17 -3 -27
q0 -46 56 -46q37 0 54.5 18t23.5 55zM292 707l-49 84q82 51 131 88l54 -91q-53 -36 -136 -81z" />
    <glyph glyph-name="Ocircumflex" unicode="&#xd4;" horiz-adv-x="474" 
d="M478 471l-49 -278q-18 -102 -70 -153.5t-168 -51.5q-89 0 -131 41t-42 112q0 22 5 52l49 278q19 108 70.5 157.5t166.5 49.5q174 0 174 -152q0 -27 -5 -55zM289 181l54 306q3 15 3 27q0 23 -12.5 33.5t-43.5 10.5q-38 0 -55 -17t-23 -54l-54 -306q-3 -17 -3 -27
q0 -46 56 -46q37 0 54.5 18t23.5 55zM452 770l-63 -63q-47 36 -66 54q-16 -12 -86 -54l-46 69q17 12 68.5 47t81.5 56q23 -24 111 -109z" />
    <glyph glyph-name="Otilde" unicode="&#xd5;" horiz-adv-x="474" 
d="M478 471l-49 -278q-18 -102 -70 -153.5t-168 -51.5q-89 0 -131 41t-42 112q0 22 5 52l49 278q19 108 70.5 157.5t166.5 49.5q174 0 174 -152q0 -27 -5 -55zM289 181l54 306q3 15 3 27q0 23 -12.5 33.5t-43.5 10.5q-38 0 -55 -17t-23 -54l-54 -306q-3 -17 -3 -27
q0 -46 56 -46q37 0 54.5 18t23.5 55zM318 725q-31 20 -39 20q-19 0 -43 -36l-58 40q27 52 49 73t59 21q28 0 56 -19q29 -20 39 -20q12 0 19.5 7.5t18.5 26.5l58 -37q-23 -46 -46 -70t-57 -24q-30 0 -56 18z" />
    <glyph glyph-name="Odieresis" unicode="&#xd6;" horiz-adv-x="474" 
d="M478 471l-49 -278q-18 -102 -70 -153.5t-168 -51.5q-89 0 -131 41t-42 112q0 22 5 52l49 278q19 108 70.5 157.5t166.5 49.5q174 0 174 -152q0 -27 -5 -55zM289 181l54 306q3 15 3 27q0 23 -12.5 33.5t-43.5 10.5q-38 0 -55 -17t-23 -54l-54 -306q-3 -17 -3 -27
q0 -46 56 -46q37 0 54.5 18t23.5 55zM294 712h-106l23 129h106zM443 712h-106l23 129h106z" />
    <glyph glyph-name="multiply" unicode="&#xd7;" horiz-adv-x="468" 
d="M66 448l81 81l105 -105l105 105l81 -81l-105 -105l105 -105l-81 -81l-105 105l-105 -105l-81 81l105 105z" />
    <glyph glyph-name="Oslash" unicode="&#xd8;" horiz-adv-x="476" 
d="M-14 -30l54 84q-21 36 -21 87q0 22 5 52l49 278q19 108 70.5 157.5t166.5 49.5q71 0 114 -27l47 74l46 -29l-54 -84q21 -36 21 -86q0 -27 -5 -55l-49 -278q-18 -102 -70 -153.5t-168 -51.5q-69 0 -113 26l-48 -75zM213 487l-40 -226l172 268q-8 29 -54 29q-38 0 -55 -17
t-23 -54zM290 181l39 222l-171 -266q8 -29 54 -29q37 0 54.5 18t23.5 55z" />
    <glyph glyph-name="Ugrave" unicode="&#xd9;" horiz-adv-x="483" 
d="M378 666h138l-87 -490q-17 -93 -71 -140.5t-164 -47.5q-80 0 -125.5 42.5t-45.5 111.5q0 15 4 39l86 485h138l-87 -490q-2 -14 -2 -22q0 -46 54 -46q36 0 52.5 15.5t22.5 46.5zM399 782l-64 -75q-74 49 -116 88l71 84q32 -32 109 -97z" />
    <glyph glyph-name="Uacute" unicode="&#xda;" horiz-adv-x="483" 
d="M378 666h138l-87 -490q-17 -93 -71 -140.5t-164 -47.5q-80 0 -125.5 42.5t-45.5 111.5q0 15 4 39l86 485h138l-87 -490q-2 -14 -2 -22q0 -46 54 -46q36 0 52.5 15.5t22.5 46.5zM302 707l-49 84q82 51 131 88l54 -91q-53 -36 -136 -81z" />
    <glyph glyph-name="Ucircumflex" unicode="&#xdb;" horiz-adv-x="483" 
d="M378 666h138l-87 -490q-17 -93 -71 -140.5t-164 -47.5q-80 0 -125.5 42.5t-45.5 111.5q0 15 4 39l86 485h138l-87 -490q-2 -14 -2 -22q0 -46 54 -46q36 0 52.5 15.5t22.5 46.5zM465 770l-63 -63q-47 36 -66 54q-16 -12 -86 -54l-46 69q17 12 68.5 47t81.5 56
q23 -24 111 -109z" />
    <glyph glyph-name="Udieresis" unicode="&#xdc;" horiz-adv-x="483" 
d="M378 666h138l-87 -490q-17 -93 -71 -140.5t-164 -47.5q-80 0 -125.5 42.5t-45.5 111.5q0 15 4 39l86 485h138l-87 -490q-2 -14 -2 -22q0 -46 54 -46q36 0 52.5 15.5t22.5 46.5zM305 712h-106l23 129h106zM454 712h-106l23 129h106z" />
    <glyph glyph-name="Yacute" unicode="&#xdd;" horiz-adv-x="423" 
d="M503 666l-224 -426l-42 -240h-138l43 245l-78 421h150l23 -275l106 275h160zM259 707l-49 84q82 51 131 88l54 -91q-53 -36 -136 -81z" />
    <glyph glyph-name="Thorn" unicode="&#xde;" horiz-adv-x="449" 
d="M160 129l-22 -129h-138l117 666h138l-20 -112h74q155 0 155 -124q0 -17 -5 -49l-15 -85q-15 -83 -63 -125t-144 -42h-77zM214 436l-33 -189h62q30 0 44 12.5t19 42.5l15 85q2 12 2 16q0 19 -11.5 26t-35.5 7h-62z" />
    <glyph glyph-name="germandbls" unicode="&#xdf;" horiz-adv-x="477" 
d="M-1 0l91 519q16 90 66.5 129t148.5 39q73 0 114.5 -34.5t41.5 -92.5q0 -41 -13 -73.5t-43 -79.5q-3 -5 -11 -16.5t-11.5 -17.5t-8.5 -14t-7 -14.5t-2 -11.5q0 -3 0.5 -5.5t1.5 -5.5t2 -5.5t3 -6t3.5 -5.5t5 -6t5 -6t6 -7t6.5 -8q30 -35 39.5 -56.5t9.5 -55.5
q0 -72 -43 -121.5t-125 -49.5q-46 0 -95 17l22 100q27 -12 65 -12q46 0 46 40q0 3 -0.5 5.5t-1.5 5t-2 4.5t-4 5.5t-5 5t-6 6t-7 7.5q-38 40 -51 63t-13 51q0 14 2.5 28t5 23t9.5 23l10 20t12.5 21t12.5 20q1 2 10.5 17.5t12 20t9.5 18t9 21t4.5 18.5t2.5 21q0 39 -42 39
q-52 0 -62 -58l-92 -525q-12 -72 -35 -119t-67 -88l-94 69q51 63 64 138z" />
    <glyph glyph-name="agrave" unicode="&#xe0;" horiz-adv-x="413" 
d="M10 141l38 216q13 76 55 108t122 32q98 0 187 -48l-79 -449h-109l-1 51q-52 -61 -121 -61q-50 0 -73 30.5t-23 78.5q0 22 4 42zM224 134l43 248q-19 7 -41 7q-23 0 -33 -9t-15 -34l-34 -193q-2 -12 -2 -18q0 -27 24 -27q23 0 58 26zM345 612l-64 -75q-66 44 -119 93
l78 84q55 -60 105 -102z" />
    <glyph glyph-name="aacute" unicode="&#xe1;" horiz-adv-x="413" 
d="M10 141l38 216q13 76 55 108t122 32q98 0 187 -48l-79 -449h-109l-1 51q-52 -61 -121 -61q-50 0 -73 30.5t-23 78.5q0 22 4 42zM224 134l43 248q-19 7 -41 7q-23 0 -33 -9t-15 -34l-34 -193q-2 -12 -2 -18q0 -27 24 -27q23 0 58 26zM233 537l-49 84q87 54 138 93l54 -91
q-49 -33 -143 -86z" />
    <glyph glyph-name="acircumflex" unicode="&#xe2;" horiz-adv-x="413" 
d="M10 141l38 216q13 76 55 108t122 32q98 0 187 -48l-79 -449h-109l-1 51q-52 -61 -121 -61q-50 0 -73 30.5t-23 78.5q0 22 4 42zM224 134l43 248q-19 7 -41 7q-23 0 -33 -9t-15 -34l-34 -193q-2 -12 -2 -18q0 -27 24 -27q23 0 58 26zM401 600l-63 -63q-35 29 -63 59
q-27 -22 -84 -59l-46 69q113 82 148 108q31 -35 108 -114z" />
    <glyph glyph-name="atilde" unicode="&#xe3;" horiz-adv-x="413" 
d="M10 141l38 216q13 76 55 108t122 32q98 0 187 -48l-79 -449h-109l-1 51q-52 -61 -121 -61q-50 0 -73 30.5t-23 78.5q0 22 4 42zM224 134l43 248q-19 7 -41 7q-23 0 -33 -9t-15 -34l-34 -193q-2 -12 -2 -18q0 -27 24 -27q23 0 58 26zM265 555q-31 20 -39 20q-19 0 -43 -36
l-58 40q27 52 49 73t59 21q28 0 56 -19q29 -20 39 -20q12 0 19.5 7.5t18.5 26.5l58 -37q-23 -46 -46 -70t-57 -24q-30 0 -56 18z" />
    <glyph glyph-name="adieresis" unicode="&#xe4;" horiz-adv-x="413" 
d="M10 141l38 216q13 76 55 108t122 32q98 0 187 -48l-79 -449h-109l-1 51q-52 -61 -121 -61q-50 0 -73 30.5t-23 78.5q0 22 4 42zM224 134l43 248q-19 7 -41 7q-23 0 -33 -9t-15 -34l-34 -193q-2 -12 -2 -18q0 -27 24 -27q23 0 58 26zM246 544h-102l23 129h102zM391 544
h-102l23 129h102z" />
    <glyph glyph-name="aring" unicode="&#xe5;" horiz-adv-x="413" 
d="M10 141l38 216q13 76 55 108t122 32q98 0 187 -48l-79 -449h-109l-1 51q-52 -61 -121 -61q-50 0 -73 30.5t-23 78.5q0 22 4 42zM224 134l43 248q-19 7 -41 7q-23 0 -33 -9t-15 -34l-34 -193q-2 -12 -2 -18q0 -27 24 -27q23 0 58 26zM370 641q0 -45 -28 -74.5t-77 -29.5
q-34 0 -56 20.5t-22 52.5q0 48 28.5 75.5t75.5 27.5q37 0 58 -19.5t21 -52.5zM272 588q18 0 28 13.5t10 34.5q0 26 -25 26q-18 0 -28.5 -13.5t-10.5 -34.5q0 -26 26 -26z" />
    <glyph glyph-name="ae" unicode="&#xe6;" horiz-adv-x="572" 
d="M399 192q-22 -5 -50 -10l-8 -46q-2 -12 -2 -15q0 -22 28 -22q58 0 132 44l33 -94q-98 -59 -193 -59q-73 0 -105 41q-53 -41 -132 -41q-52 0 -82 35t-30 86q0 91 40 132.5t119 41.5h86l7 39q1 6 1 13q0 46 -54 46q-61 0 -116 -21l-14 104q62 31 152 31q79 0 113 -37
q42 37 116 37q63 0 98 -32t35 -95q0 -69 -38.5 -112t-135.5 -66zM158 95q28 0 54 12q-2 20 4 52l4 23h-52q-43 0 -43 -52q0 -35 33 -35zM406 298q47 13 47 58q0 35 -34 35q-33 0 -41 -44l-10 -58q22 4 38 9z" />
    <glyph glyph-name="ccedilla" unicode="&#xe7;" horiz-adv-x="310" 
d="M270 18q-43 -22 -112 -27l-8 -33l12 -2q62 -10 62 -66q0 -44 -31.5 -70.5t-83.5 -26.5q-42 0 -79 14l15 58q18 -8 40 -8q33 0 33 24q0 17 -27 22l-25 5l29 86q-89 19 -89 116q0 23 4 43l33 187q14 80 58.5 118.5t123.5 38.5q68 0 113 -21l-23 -106q-39 13 -79 13
q-30 0 -44.5 -12t-19.5 -42l-33 -187q-7 -38 28 -38q46 0 95 19z" />
    <glyph glyph-name="egrave" unicode="&#xe8;" horiz-adv-x="362" 
d="M219 203l-76 -27l-8 -46q-5 -31 27 -31q50 0 134 45l25 -98q-90 -56 -188 -56q-65 0 -97 32.5t-32 90.5q0 21 4 46l30 170q30 168 189 168q61 0 100.5 -32.5t39.5 -89.5q0 -119 -148 -172zM163 288l29 10q55 18 55 63q0 31 -32 31q-34 0 -42 -45zM295 612l-64 -75
q-66 44 -119 93l78 84q55 -60 105 -102z" />
    <glyph glyph-name="eacute" unicode="&#xe9;" horiz-adv-x="362" 
d="M219 203l-76 -27l-8 -46q-5 -31 27 -31q50 0 134 45l25 -98q-90 -56 -188 -56q-65 0 -97 32.5t-32 90.5q0 21 4 46l30 170q30 168 189 168q61 0 100.5 -32.5t39.5 -89.5q0 -119 -148 -172zM163 288l29 10q55 18 55 63q0 31 -32 31q-34 0 -42 -45zM221 537l-49 84
q87 54 138 93l54 -91q-49 -33 -143 -86z" />
    <glyph glyph-name="ecircumflex" unicode="&#xea;" horiz-adv-x="362" 
d="M219 203l-76 -27l-8 -46q-5 -31 27 -31q50 0 134 45l25 -98q-90 -56 -188 -56q-65 0 -97 32.5t-32 90.5q0 21 4 46l30 170q30 168 189 168q61 0 100.5 -32.5t39.5 -89.5q0 -119 -148 -172zM163 288l29 10q55 18 55 63q0 31 -32 31q-34 0 -42 -45zM372 600l-63 -63
q-35 29 -63 59q-27 -22 -84 -59l-46 69q113 82 148 108q31 -35 108 -114z" />
    <glyph glyph-name="edieresis" unicode="&#xeb;" horiz-adv-x="362" 
d="M219 203l-76 -27l-8 -46q-5 -31 27 -31q50 0 134 45l25 -98q-90 -56 -188 -56q-65 0 -97 32.5t-32 90.5q0 21 4 46l30 170q30 168 189 168q61 0 100.5 -32.5t39.5 -89.5q0 -119 -148 -172zM163 288l29 10q55 18 55 63q0 31 -32 31q-34 0 -42 -45zM216 544h-102l23 129
h102zM361 544h-102l23 129h102z" />
    <glyph glyph-name="igrave" unicode="&#xec;" horiz-adv-x="213" 
d="M127 0h-132l83 476l136 20zM230 612l-64 -75q-66 44 -119 93l78 84q55 -60 105 -102z" />
    <glyph glyph-name="iacute" unicode="&#xed;" horiz-adv-x="213" 
d="M127 0h-132l83 476l136 20zM138 537l-49 84q87 54 138 93l54 -91q-49 -33 -143 -86z" />
    <glyph glyph-name="icircumflex" unicode="&#xee;" horiz-adv-x="213" 
d="M127 0h-132l83 476l136 20zM298 600l-63 -63q-35 29 -63 59q-27 -22 -84 -59l-46 69q113 82 148 108q31 -35 108 -114z" />
    <glyph glyph-name="idieresis" unicode="&#xef;" horiz-adv-x="213" 
d="M127 0h-132l83 476l136 20zM140 544h-102l23 129h102zM285 544h-102l23 129h102z" />
    <glyph glyph-name="eth" unicode="&#xf0;" horiz-adv-x="434" 
d="M161 482l-20 48l84 42q-39 19 -103 27l34 107q134 -10 203 -68l89 43l21 -49l-74 -37q36 -41 36 -133q0 -29 -5 -61l-41 -236q-31 -177 -214 -177q-73 0 -114.5 37.5t-41.5 101.5q0 17 3 37l23 132q26 148 163 148q54 0 94 -24q2 22 2 30q0 58 -28 85zM188 98q53 0 62 55
l30 168q-20 12 -57 12q-24 0 -35 -10t-16 -34l-24 -135q-2 -12 -2 -18q0 -38 42 -38z" />
    <glyph glyph-name="ntilde" unicode="&#xf1;" horiz-adv-x="422" 
d="M342 0h-132l61 346q4 27 -18 27q-26 0 -64 -20l-62 -353h-132l83 475l114 21l5 -47q66 48 131 48q41 0 63 -20t22 -58q0 -14 -2 -28zM262 555q-31 20 -39 20q-19 0 -43 -36l-58 40q27 52 49 73t59 21q28 0 56 -19q29 -20 39 -20q12 0 19.5 7.5t18.5 26.5l58 -37
q-23 -46 -46 -70t-57 -24q-30 0 -56 18z" />
    <glyph glyph-name="ograve" unicode="&#xf2;" horiz-adv-x="413" 
d="M176 -10q-73 0 -120.5 39.5t-47.5 109.5q0 21 3 37l26 148q15 88 60 130.5t133 42.5q74 0 123.5 -35t49.5 -104q0 -16 -3 -34l-27 -154q-15 -89 -59.5 -134.5t-137.5 -45.5zM237 148l33 186q10 53 -41 53q-26 0 -39.5 -11t-17.5 -36l-33 -186q-4 -23 7 -38.5t36 -15.5
q47 0 55 48zM334 612l-64 -75q-66 44 -119 93l78 84q55 -60 105 -102z" />
    <glyph glyph-name="oacute" unicode="&#xf3;" horiz-adv-x="413" 
d="M176 -10q-73 0 -120.5 39.5t-47.5 109.5q0 21 3 37l26 148q15 88 60 130.5t133 42.5q74 0 123.5 -35t49.5 -104q0 -16 -3 -34l-27 -154q-15 -89 -59.5 -134.5t-137.5 -45.5zM237 148l33 186q10 53 -41 53q-26 0 -39.5 -11t-17.5 -36l-33 -186q-4 -23 7 -38.5t36 -15.5
q47 0 55 48zM241 537l-49 84q87 54 138 93l54 -91q-49 -33 -143 -86z" />
    <glyph glyph-name="ocircumflex" unicode="&#xf4;" horiz-adv-x="413" 
d="M176 -10q-73 0 -120.5 39.5t-47.5 109.5q0 21 3 37l26 148q15 88 60 130.5t133 42.5q74 0 123.5 -35t49.5 -104q0 -16 -3 -34l-27 -154q-15 -89 -59.5 -134.5t-137.5 -45.5zM237 148l33 186q10 53 -41 53q-26 0 -39.5 -11t-17.5 -36l-33 -186q-4 -23 7 -38.5t36 -15.5
q47 0 55 48zM392 600l-63 -63q-35 29 -63 59q-27 -22 -84 -59l-46 69q113 82 148 108q31 -35 108 -114z" />
    <glyph glyph-name="otilde" unicode="&#xf5;" horiz-adv-x="413" 
d="M176 -10q-73 0 -120.5 39.5t-47.5 109.5q0 21 3 37l26 148q15 88 60 130.5t133 42.5q74 0 123.5 -35t49.5 -104q0 -16 -3 -34l-27 -154q-15 -89 -59.5 -134.5t-137.5 -45.5zM237 148l33 186q10 53 -41 53q-26 0 -39.5 -11t-17.5 -36l-33 -186q-4 -23 7 -38.5t36 -15.5
q47 0 55 48zM264 555q-31 20 -39 20q-19 0 -43 -36l-58 40q27 52 49 73t59 21q28 0 56 -19q29 -20 39 -20q12 0 19.5 7.5t18.5 26.5l58 -37q-23 -46 -46 -70t-57 -24q-30 0 -56 18z" />
    <glyph glyph-name="odieresis" unicode="&#xf6;" horiz-adv-x="413" 
d="M176 -10q-73 0 -120.5 39.5t-47.5 109.5q0 21 3 37l26 148q15 88 60 130.5t133 42.5q74 0 123.5 -35t49.5 -104q0 -16 -3 -34l-27 -154q-15 -89 -59.5 -134.5t-137.5 -45.5zM237 148l33 186q10 53 -41 53q-26 0 -39.5 -11t-17.5 -36l-33 -186q-4 -23 7 -38.5t36 -15.5
q47 0 55 48zM238 544h-102l23 129h102zM383 544h-102l23 129h102z" />
    <glyph glyph-name="divide" unicode="&#xf7;" horiz-adv-x="492" 
d="M320 107h-128v127h128v-127zM442 286h-372v114h372v-114zM320 452h-128v127h128v-127z" />
    <glyph glyph-name="oslash" unicode="&#xf8;" horiz-adv-x="415" 
d="M-22 -23l53 71q-24 35 -24 85q0 16 4 38l27 153q16 91 63.5 132t144.5 41q61 0 103 -26l49 65l35 -28l-52 -69q23 -28 23 -78q0 -17 -3 -37l-27 -154q-16 -91 -62 -135.5t-146 -44.5q-61 0 -102 27l-51 -68zM172 335l-23 -130l119 158q-9 20 -39 20q-49 0 -57 -48z
M239 153l22 126l-118 -157q9 -18 38 -18q50 0 58 49z" />
    <glyph glyph-name="ugrave" unicode="&#xf9;" horiz-adv-x="418" 
d="M75 482l133 8l-61 -350q-5 -28 18 -28q27 0 59 18l62 352l133 8l-86 -490h-112l-4 38q-71 -48 -129 -48q-41 0 -62 23.5t-21 61.5q0 11 3 27zM337 612l-64 -75q-66 44 -119 93l78 84q55 -60 105 -102z" />
    <glyph glyph-name="uacute" unicode="&#xfa;" horiz-adv-x="418" 
d="M75 482l133 8l-61 -350q-5 -28 18 -28q27 0 59 18l62 352l133 8l-86 -490h-112l-4 38q-71 -48 -129 -48q-41 0 -62 23.5t-21 61.5q0 11 3 27zM236 537l-49 84q87 54 138 93l54 -91q-49 -33 -143 -86z" />
    <glyph glyph-name="ucircumflex" unicode="&#xfb;" horiz-adv-x="418" 
d="M75 482l133 8l-61 -350q-5 -28 18 -28q27 0 59 18l62 352l133 8l-86 -490h-112l-4 38q-71 -48 -129 -48q-41 0 -62 23.5t-21 61.5q0 11 3 27zM395 600l-63 -63q-35 29 -63 59q-27 -22 -84 -59l-46 69q113 82 148 108q31 -35 108 -114z" />
    <glyph glyph-name="udieresis" unicode="&#xfc;" horiz-adv-x="418" 
d="M75 482l133 8l-61 -350q-5 -28 18 -28q27 0 59 18l62 352l133 8l-86 -490h-112l-4 38q-71 -48 -129 -48q-41 0 -62 23.5t-21 61.5q0 11 3 27zM242 544h-102l23 129h102zM387 544h-102l23 129h102z" />
    <glyph glyph-name="yacute" unicode="&#xfd;" horiz-adv-x="378" 
d="M119 0h-34l-51 472l133 20l23 -360l62 217q13 47 13 77q0 23 -4 50l130 20q9 -40 9 -68q0 -38 -20 -90l-126 -326q-34 -90 -75.5 -140.5t-126.5 -88.5l-51 98q84 38 118 119zM197 537l-49 84q87 54 138 93l54 -91q-49 -33 -143 -86z" />
    <glyph glyph-name="thorn" unicode="&#xfe;" horiz-adv-x="431" 
d="M415 346l-37 -210q-14 -79 -51.5 -112.5t-104.5 -33.5q-45 0 -92 20l-37 -207l-136 -20l159 903l135 20l-42 -245q54 36 108 36q103 0 103 -104q0 -19 -5 -47zM192 360l-44 -248q22 -8 48 -8q27 0 37.5 9.5t14.5 32.5l34 194q8 41 -27 41q-31 0 -63 -21z" />
    <glyph glyph-name="ydieresis" unicode="&#xff;" horiz-adv-x="378" 
d="M119 0h-34l-51 472l133 20l23 -360l62 217q13 47 13 77q0 23 -4 50l130 20q9 -40 9 -68q0 -38 -20 -90l-126 -326q-34 -90 -75.5 -140.5t-126.5 -88.5l-51 98q84 38 118 119zM209 544h-102l23 129h102zM354 544h-102l23 129h102z" />
    <glyph glyph-name="Amacron" unicode="&#x100;" horiz-adv-x="458" 
d="M377 666l35 -666h-137l1 135h-129l-45 -135h-144l265 666h154zM278 522l-89 -266h88zM433 716h-247l18 103h247z" />
    <glyph glyph-name="amacron" unicode="&#x101;" horiz-adv-x="413" 
d="M10 141l38 216q13 76 55 108t122 32q98 0 187 -48l-79 -449h-109l-1 51q-52 -61 -121 -61q-50 0 -73 30.5t-23 78.5q0 22 4 42zM224 134l43 248q-19 7 -41 7q-23 0 -33 -9t-15 -34l-34 -193q-2 -12 -2 -18q0 -27 24 -27q23 0 58 26zM382 546h-237l18 100h237z" />
    <glyph glyph-name="Abreve" unicode="&#x102;" horiz-adv-x="458" 
d="M377 666l35 -666h-137l1 135h-129l-45 -135h-144l265 666h154zM278 522l-89 -266h88zM377 852l85 -29q-42 -116 -156 -116q-48 0 -80.5 31t-36.5 85l89 29q4 -58 42 -58q23 0 35.5 15t21.5 43z" />
    <glyph glyph-name="abreve" unicode="&#x103;" horiz-adv-x="413" 
d="M10 141l38 216q13 76 55 108t122 32q98 0 187 -48l-79 -449h-109l-1 51q-52 -61 -121 -61q-50 0 -73 30.5t-23 78.5q0 22 4 42zM224 134l43 248q-19 7 -41 7q-23 0 -33 -9t-15 -34l-34 -193q-2 -12 -2 -18q0 -27 24 -27q23 0 58 26zM333 682l85 -29q-42 -116 -156 -116
q-48 0 -80.5 31t-36.5 85l89 29q4 -58 42 -58q23 0 35.5 15t21.5 43z" />
    <glyph glyph-name="Aogonek" unicode="&#x104;" horiz-adv-x="458" 
d="M275 0l1 135h-129l-45 -135h-144l265 666h154l35 -666q-23 -18 -36 -30t-26.5 -33.5t-13.5 -41.5t25 -20q13 0 23 3l-7 -75q-28 -10 -57 -10q-44 0 -71 24.5t-27 65.5q0 59 53 117zM278 522l-89 -266h88z" />
    <glyph glyph-name="aogonek" unicode="&#x105;" horiz-adv-x="413" 
d="M224 0l-1 51q-52 -61 -121 -61q-50 0 -73 30.5t-23 78.5q0 22 4 42l38 216q13 76 55 108t122 32q98 0 187 -48l-79 -449q-76 -58 -76 -105q0 -20 25 -20q12 0 23 3l-7 -73q-24 -12 -61 -12q-44 0 -67 22t-23 62q0 63 77 123zM224 134l43 248q-19 7 -41 7q-23 0 -33 -9
t-15 -34l-34 -193q-2 -12 -2 -18q0 -27 24 -27q23 0 58 26z" />
    <glyph glyph-name="Cacute" unicode="&#x106;" horiz-adv-x="370" 
d="M202 471l-49 -278q-3 -17 -3 -29q0 -29 15.5 -42.5t51.5 -13.5q52 0 98 11v-111q-64 -20 -131 -20q-90 0 -132 41t-42 112q0 23 4 47l52 294q18 102 67 149t150 47q78 0 132 -21l-24 -114q-41 15 -90 15q-50 0 -70 -18.5t-29 -68.5zM258 707l-49 84q82 51 131 88l54 -91
q-53 -36 -136 -81z" />
    <glyph glyph-name="cacute" unicode="&#x107;" horiz-adv-x="310" 
d="M138 -10q-132 0 -132 120q0 23 4 43l33 187q14 80 58.5 118.5t123.5 38.5q68 0 113 -21l-23 -106q-39 13 -79 13q-30 0 -44.5 -12t-19.5 -42l-33 -187q-7 -38 28 -38q46 0 95 19l8 -105q-52 -28 -132 -28zM205 537l-49 84q87 54 138 93l54 -91q-49 -33 -143 -86z" />
    <glyph glyph-name="Ccircumflex" unicode="&#x108;" horiz-adv-x="370" 
d="M202 471l-49 -278q-3 -17 -3 -29q0 -29 15.5 -42.5t51.5 -13.5q52 0 98 11v-111q-64 -20 -131 -20q-90 0 -132 41t-42 112q0 23 4 47l52 294q18 102 67 149t150 47q78 0 132 -21l-24 -114q-41 15 -90 15q-50 0 -70 -18.5t-29 -68.5zM428 770l-63 -63q-47 36 -66 54
q-16 -12 -86 -54l-46 69q17 12 68.5 47t81.5 56q23 -24 111 -109z" />
    <glyph glyph-name="ccircumflex" unicode="&#x109;" horiz-adv-x="310" 
d="M138 -10q-132 0 -132 120q0 23 4 43l33 187q14 80 58.5 118.5t123.5 38.5q68 0 113 -21l-23 -106q-39 13 -79 13q-30 0 -44.5 -12t-19.5 -42l-33 -187q-7 -38 28 -38q46 0 95 19l8 -105q-52 -28 -132 -28zM365 600l-63 -63q-35 29 -63 59q-27 -22 -84 -59l-46 69
q113 82 148 108q31 -35 108 -114z" />
    <glyph glyph-name="Cdotaccent" unicode="&#x10a;" horiz-adv-x="370" 
d="M202 471l-49 -278q-3 -17 -3 -29q0 -29 15.5 -42.5t51.5 -13.5q52 0 98 11v-111q-64 -20 -131 -20q-90 0 -132 41t-42 112q0 23 4 47l52 294q18 102 67 149t150 47q78 0 132 -21l-24 -114q-41 15 -90 15q-50 0 -70 -18.5t-29 -68.5zM349 728l-136 -20l25 147l136 20z" />
    <glyph glyph-name="cdotaccent" unicode="&#x10b;" horiz-adv-x="310" 
d="M138 -10q-132 0 -132 120q0 23 4 43l33 187q14 80 58.5 118.5t123.5 38.5q68 0 113 -21l-23 -106q-39 13 -79 13q-30 0 -44.5 -12t-19.5 -42l-33 -187q-7 -38 28 -38q46 0 95 19l8 -105q-52 -28 -132 -28zM297 557l-136 -20l25 147l136 20z" />
    <glyph glyph-name="Ccaron" unicode="&#x10c;" horiz-adv-x="370" 
d="M202 471l-49 -278q-3 -17 -3 -29q0 -29 15.5 -42.5t51.5 -13.5q52 0 98 11v-111q-64 -20 -131 -20q-90 0 -132 41t-42 112q0 23 4 47l52 294q18 102 67 149t150 47q78 0 132 -21l-24 -114q-41 15 -90 15q-50 0 -70 -18.5t-29 -68.5zM169 816l63 63q47 -36 66 -54
q16 12 86 54l46 -69q-17 -12 -68.5 -47t-81.5 -56q-23 24 -111 109z" />
    <glyph glyph-name="ccaron" unicode="&#x10d;" horiz-adv-x="310" 
d="M138 -10q-132 0 -132 120q0 23 4 43l33 187q14 80 58.5 118.5t123.5 38.5q68 0 113 -21l-23 -106q-39 13 -79 13q-30 0 -44.5 -12t-19.5 -42l-33 -187q-7 -38 28 -38q46 0 95 19l8 -105q-52 -28 -132 -28zM114 651l63 63q35 -29 63 -59q27 22 84 59l46 -69
q-113 -82 -148 -108q-31 35 -108 114z" />
    <glyph glyph-name="Dcaron" unicode="&#x10e;" horiz-adv-x="477" 
d="M117 666h205q164 0 164 -136q0 -30 -6 -66l-48 -271q-19 -105 -70.5 -149t-153.5 -44h-208zM234 546l-75 -426h56q39 0 55.5 18t24.5 61l48 271q3 18 3 31q0 24 -12.5 34.5t-42.5 10.5h-57zM190 816l63 63q47 -36 66 -54q16 12 86 54l46 -69q-17 -12 -68.5 -47t-81.5 -56
q-23 24 -111 109z" />
    <glyph glyph-name="dcaron" unicode="&#x10f;" horiz-adv-x="576" 
d="M16 147l36 204q14 79 51.5 112.5t104.5 33.5q45 0 92 -20l37 209l136 20l-124 -706h-109l-3 38q-57 -48 -124 -48q-101 0 -101 111q0 25 4 46zM238 125l44 248q-22 8 -48 8q-27 0 -37.5 -9t-14.5 -32l-34 -193q-8 -43 27 -43q31 0 63 21zM641 666l-23 -132l-87 -126
l-50 30l54 96h-47l23 132h130z" />
    <glyph glyph-name="Dcroat" unicode="&#x110;" horiz-adv-x="495" 
d="M27 276l20 115h40l49 275h208q83 0 122 -33t39 -103q0 -30 -6 -66l-48 -271q-18 -105 -70 -149t-154 -44h-208l48 276h-40zM253 546l-28 -155h64l-20 -115h-64l-27 -156h56q39 0 55.5 18t24.5 61l48 271q3 18 3 31q0 24 -12.5 34.5t-42.5 10.5h-57z" />
    <glyph glyph-name="dcroat" unicode="&#x111;" horiz-adv-x="444" 
d="M300 477l12 71h-113l13 73h113l12 65l136 20l-15 -85h40l-13 -73h-40l-96 -548h-109l-3 38q-57 -48 -124 -48q-101 0 -101 111q0 25 4 46l36 204q14 79 51.5 112.5t104.5 33.5q45 0 92 -20zM238 125l44 248q-22 8 -48 8q-27 0 -37.5 -9t-14.5 -32l-34 -193q-8 -43 27 -43
q31 0 63 21z" />
    <glyph glyph-name="Emacron" unicode="&#x112;" horiz-adv-x="409" 
d="M332 0h-332l117 666h331l-21 -120h-193l-27 -150h176l-21 -120h-176l-27 -156h194zM414 716h-247l18 103h247z" />
    <glyph glyph-name="emacron" unicode="&#x113;" horiz-adv-x="362" 
d="M219 203l-76 -27l-8 -46q-5 -31 27 -31q50 0 134 45l25 -98q-90 -56 -188 -56q-65 0 -97 32.5t-32 90.5q0 21 4 46l30 170q30 168 189 168q61 0 100.5 -32.5t39.5 -89.5q0 -119 -148 -172zM163 288l29 10q55 18 55 63q0 31 -32 31q-34 0 -42 -45zM361 546h-237l18 100
h237z" />
    <glyph glyph-name="Ebreve" unicode="&#x114;" horiz-adv-x="409" 
d="M332 0h-332l117 666h331l-21 -120h-193l-27 -150h176l-21 -120h-176l-27 -156h194zM360 852l85 -29q-42 -116 -156 -116q-48 0 -80.5 31t-36.5 85l89 29q4 -58 42 -58q23 0 35.5 15t21.5 43z" />
    <glyph glyph-name="ebreve" unicode="&#x115;" horiz-adv-x="362" 
d="M219 203l-76 -27l-8 -46q-5 -31 27 -31q50 0 134 45l25 -98q-90 -56 -188 -56q-65 0 -97 32.5t-32 90.5q0 21 4 46l30 170q30 168 189 168q61 0 100.5 -32.5t39.5 -89.5q0 -119 -148 -172zM163 288l29 10q55 18 55 63q0 31 -32 31q-34 0 -42 -45zM309 682l85 -29
q-42 -116 -156 -116q-48 0 -80.5 31t-36.5 85l89 29q4 -58 42 -58q23 0 35.5 15t21.5 43z" />
    <glyph glyph-name="Edotaccent" unicode="&#x116;" horiz-adv-x="409" 
d="M332 0h-332l117 666h331l-21 -120h-193l-27 -150h176l-21 -120h-176l-27 -156h194zM361 728l-136 -20l25 147l136 20z" />
    <glyph glyph-name="edotaccent" unicode="&#x117;" horiz-adv-x="362" 
d="M219 203l-76 -27l-8 -46q-5 -31 27 -31q50 0 134 45l25 -98q-90 -56 -188 -56q-65 0 -97 32.5t-32 90.5q0 21 4 46l30 170q30 168 189 168q61 0 100.5 -32.5t39.5 -89.5q0 -119 -148 -172zM163 288l29 10q55 18 55 63q0 31 -32 31q-34 0 -42 -45zM314 557l-136 -20
l25 147l136 20z" />
    <glyph glyph-name="Eogonek" unicode="&#x118;" horiz-adv-x="409" 
d="M223 0h-223l117 666h331l-21 -120h-193l-27 -150h176l-21 -120h-176l-27 -156h194l-21 -120q-24 -20 -36 -30.5t-26 -32.5t-14 -42t25 -20q13 0 23 3l-7 -73q-24 -12 -61 -12q-44 0 -67 21t-23 58q0 77 77 128z" />
    <glyph glyph-name="eogonek" unicode="&#x119;" horiz-adv-x="362" 
d="M219 203l-76 -27l-8 -46q-5 -31 27 -31q50 0 134 45l25 -98q-29 -22 -44 -34.5t-37.5 -34t-32.5 -41t-10 -38.5q0 -23 25 -23q12 0 23 3l-7 -73q-24 -12 -61 -12q-90 0 -90 80q0 68 79 121q-12 -4 -33 -4q-65 0 -97 32.5t-32 90.5q0 21 4 46l30 170q30 168 189 168
q61 0 100.5 -32.5t39.5 -89.5q0 -119 -148 -172zM163 288l29 10q55 18 55 63q0 31 -32 31q-34 0 -42 -45z" />
    <glyph glyph-name="Ecaron" unicode="&#x11a;" horiz-adv-x="409" 
d="M332 0h-332l117 666h331l-21 -120h-193l-27 -150h176l-21 -120h-176l-27 -156h194zM186 816l63 63q47 -36 66 -54q16 12 86 54l46 -69q-17 -12 -68.5 -47t-81.5 -56q-23 24 -111 109z" />
    <glyph glyph-name="ecaron" unicode="&#x11b;" horiz-adv-x="362" 
d="M219 203l-76 -27l-8 -46q-5 -31 27 -31q50 0 134 45l25 -98q-90 -56 -188 -56q-65 0 -97 32.5t-32 90.5q0 21 4 46l30 170q30 168 189 168q61 0 100.5 -32.5t39.5 -89.5q0 -119 -148 -172zM163 288l29 10q55 18 55 63q0 31 -32 31q-34 0 -42 -45zM129 651l63 63
q35 -29 63 -59q27 22 84 59l46 -69q-113 -82 -148 -108q-31 35 -108 114z" />
    <glyph glyph-name="Gcircumflex" unicode="&#x11c;" horiz-adv-x="449" 
d="M205 465l-50 -283q-3 -18 -3 -29q0 -25 15.5 -37t51.5 -12q22 0 42 5l38 217h129l-55 -314q-73 -24 -167 -24q-90 0 -141 40t-51 115q0 24 4 44l51 290q19 109 68.5 155t161.5 46q104 0 171 -31l-25 -115q-74 26 -138 26q-50 0 -71.5 -20.5t-30.5 -72.5zM449 770l-63 -63
q-47 36 -66 54q-16 -12 -86 -54l-46 69q17 12 68.5 47t81.5 56q23 -24 111 -109z" />
    <glyph glyph-name="gcircumflex" unicode="&#x11d;" horiz-adv-x="432" 
d="M206 -57l19 109q-59 -42 -117 -42q-48 0 -72 27t-24 73q0 16 4 38l32 181q17 94 58 131t136 37q101 0 187 -43l-93 -527q-24 -134 -181 -134q-90 0 -168 35l26 102q76 -30 130 -30q56 0 63 43zM241 142l41 233q-18 8 -43 8q-27 0 -40 -9t-17 -34l-32 -181q-7 -37 26 -37
q35 0 65 20zM417 600l-63 -63q-35 29 -63 59q-27 -22 -84 -59l-46 69q113 82 148 108q31 -35 108 -114z" />
    <glyph glyph-name="Gbreve" unicode="&#x11e;" horiz-adv-x="449" 
d="M205 465l-50 -283q-3 -18 -3 -29q0 -25 15.5 -37t51.5 -12q22 0 42 5l38 217h129l-55 -314q-73 -24 -167 -24q-90 0 -141 40t-51 115q0 24 4 44l51 290q19 109 68.5 155t161.5 46q104 0 171 -31l-25 -115q-74 26 -138 26q-50 0 -71.5 -20.5t-30.5 -72.5zM384 852l85 -29
q-42 -116 -156 -116q-48 0 -80.5 31t-36.5 85l89 29q4 -58 42 -58q23 0 35.5 15t21.5 43z" />
    <glyph glyph-name="gbreve" unicode="&#x11f;" horiz-adv-x="432" 
d="M206 -57l19 109q-59 -42 -117 -42q-48 0 -72 27t-24 73q0 16 4 38l32 181q17 94 58 131t136 37q101 0 187 -43l-93 -527q-24 -134 -181 -134q-90 0 -168 35l26 102q76 -30 130 -30q56 0 63 43zM241 142l41 233q-18 8 -43 8q-27 0 -40 -9t-17 -34l-32 -181q-7 -37 26 -37
q35 0 65 20zM344 682l85 -29q-42 -116 -156 -116q-48 0 -80.5 31t-36.5 85l89 29q4 -58 42 -58q23 0 35.5 15t21.5 43z" />
    <glyph glyph-name="Gdotaccent" unicode="&#x120;" horiz-adv-x="449" 
d="M205 465l-50 -283q-3 -18 -3 -29q0 -25 15.5 -37t51.5 -12q22 0 42 5l38 217h129l-55 -314q-73 -24 -167 -24q-90 0 -141 40t-51 115q0 24 4 44l51 290q19 109 68.5 155t161.5 46q104 0 171 -31l-25 -115q-74 26 -138 26q-50 0 -71.5 -20.5t-30.5 -72.5zM381 728
l-136 -20l25 147l136 20z" />
    <glyph glyph-name="gdotaccent" unicode="&#x121;" horiz-adv-x="432" 
d="M206 -57l19 109q-59 -42 -117 -42q-48 0 -72 27t-24 73q0 16 4 38l32 181q17 94 58 131t136 37q101 0 187 -43l-93 -527q-24 -134 -181 -134q-90 0 -168 35l26 102q76 -30 130 -30q56 0 63 43zM241 142l41 233q-18 8 -43 8q-27 0 -40 -9t-17 -34l-32 -181q-7 -37 26 -37
q35 0 65 20zM349 557l-136 -20l25 147l136 20z" />
    <glyph glyph-name="Gcommaaccent" unicode="&#x122;" horiz-adv-x="449" 
d="M205 465l-50 -283q-3 -18 -3 -29q0 -25 15.5 -37t51.5 -12q22 0 42 5l38 217h129l-55 -314q-73 -24 -167 -24q-90 0 -141 40t-51 115q0 24 4 44l51 290q19 109 68.5 155t161.5 46q104 0 171 -31l-25 -115q-74 26 -138 26q-50 0 -71.5 -20.5t-30.5 -72.5zM266 -59
l-23 -132l-85 -125l-50 30l50 95h-47l23 132h132z" />
    <glyph glyph-name="gcommaaccent" unicode="&#x123;" horiz-adv-x="432" 
d="M206 -57l19 109q-59 -42 -117 -42q-48 0 -72 27t-24 73q0 16 4 38l32 181q17 94 58 131t136 37q101 0 187 -43l-93 -527q-24 -134 -181 -134q-90 0 -168 35l26 102q76 -30 130 -30q56 0 63 43zM241 142l41 233q-18 8 -43 8q-27 0 -40 -9t-17 -34l-32 -181q-7 -37 26 -37
q35 0 65 20zM206 537l23 129l76 113l51 -28l-46 -85h50l-23 -129h-131z" />
    <glyph glyph-name="Hcircumflex" unicode="&#x124;" horiz-adv-x="491" 
d="M401 0h-138l48 273h-125l-48 -273h-138l117 666h138l-48 -273h125l48 273h138zM466 770l-63 -63q-47 36 -66 54q-16 -12 -86 -54l-46 69q17 12 68.5 47t81.5 56q23 -24 111 -109z" />
    <glyph glyph-name="hcircumflex" unicode="&#x125;" horiz-adv-x="422" 
d="M342 0h-132l61 346q4 27 -18 27q-26 0 -64 -20l-62 -353h-132l120 686l136 20l-44 -252q63 43 121 43q41 0 63 -20t22 -58q0 -14 -2 -28zM336 810l-63 -63q-47 36 -66 54q-16 -12 -86 -54l-46 69q17 12 68.5 47t81.5 56q23 -24 111 -109z" />
    <glyph glyph-name="Hbar" unicode="&#x126;" horiz-adv-x="511" 
d="M56 496l13 73h41l17 97h138l-17 -97h125l17 97h138l-17 -97h42l-13 -73h-42l-87 -496h-138l48 273h-125l-48 -273h-138l87 496h-41zM217 393h125l18 103h-125z" />
    <glyph glyph-name="hbar" unicode="&#x127;" horiz-adv-x="432" 
d="M5 0l96 548h-41l13 73h40l12 65l136 20l-15 -85h113l-13 -73h-113l-17 -95q64 44 122 44q41 0 63 -20t22 -58q0 -14 -2 -28l-69 -391h-132l61 346q4 27 -18 27q-26 0 -64 -20l-62 -353h-132z" />
    <glyph glyph-name="Itilde" unicode="&#x128;" horiz-adv-x="234" 
d="M141 0h-138l117 666h138zM198 725q-31 20 -39 20q-19 0 -43 -36l-58 40q27 52 49 73t59 21q28 0 56 -19q29 -20 39 -20q12 0 19.5 7.5t18.5 26.5l58 -37q-23 -46 -46 -70t-57 -24q-30 0 -56 18z" />
    <glyph glyph-name="itilde" unicode="&#x129;" horiz-adv-x="213" 
d="M127 0h-132l83 476l136 20zM153 555q-31 20 -39 20q-19 0 -43 -36l-58 40q27 52 49 73t59 21q28 0 56 -19q29 -20 39 -20q12 0 19.5 7.5t18.5 26.5l58 -37q-23 -46 -46 -70t-57 -24q-30 0 -56 18z" />
    <glyph glyph-name="Imacron" unicode="&#x12a;" horiz-adv-x="234" 
d="M141 0h-138l117 666h138zM323 716h-247l18 103h247z" />
    <glyph glyph-name="imacron" unicode="&#x12b;" horiz-adv-x="213" 
d="M127 0h-132l83 476l136 20zM273 546h-237l18 100h237z" />
    <glyph glyph-name="Ibreve" unicode="&#x12c;" horiz-adv-x="234" 
d="M141 0h-138l117 666h138zM271 852l85 -29q-42 -116 -156 -116q-48 0 -80.5 31t-36.5 85l89 29q4 -58 42 -58q23 0 35.5 15t21.5 43z" />
    <glyph glyph-name="ibreve" unicode="&#x12d;" horiz-adv-x="213" 
d="M127 0h-132l83 476l136 20zM227 682l85 -29q-42 -116 -156 -116q-48 0 -80.5 31t-36.5 85l89 29q4 -58 42 -58q23 0 35.5 15t21.5 43z" />
    <glyph glyph-name="Iogonek" unicode="&#x12e;" horiz-adv-x="234" 
d="M258 666l-117 -666q-21 -18 -32.5 -29.5t-24 -32t-12.5 -39.5q0 -22 24 -22q9 0 17 2l-7 -76q-22 -10 -61 -10q-45 0 -69.5 24.5t-24.5 66.5q0 64 52 116l117 666h138z" />
    <glyph glyph-name="iogonek" unicode="&#x12f;" horiz-adv-x="213" 
d="M215 496l-87 -496q-69 -59 -69 -101q0 -22 24 -22q9 0 17 2l-7 -76q-22 -10 -61 -10q-45 0 -69.5 24.5t-24.5 66.5q0 58 58 116l83 476zM226 557l-136 -20l25 147l136 20z" />
    <glyph glyph-name="Idotaccent" unicode="&#x130;" horiz-adv-x="234" 
d="M141 0h-138l117 666h138zM267 728l-136 -20l25 147l136 20z" />
    <glyph glyph-name="dotlessi" unicode="&#x131;" horiz-adv-x="213" 
d="M128 0h-132l83 476l136 20z" />
    <glyph glyph-name="IJ" unicode="&#x132;" horiz-adv-x="461" 
d="M141 0h-138l117 666h138zM210 -207l-71 92q84 52 95 115l117 666h138l-118 -666q-12 -70 -48.5 -117t-112.5 -90z" />
    <glyph glyph-name="ij" unicode="&#x133;" horiz-adv-x="426" 
d="M128 0h-132l83 476l136 20zM226 557l-136 -20l25 147l136 20zM428 496l-91 -519q-11 -60 -48 -103.5t-101 -80.5l-68 85q77 55 87 110l85 488zM439 557l-136 -20l25 147l136 20z" />
    <glyph glyph-name="Jcircumflex" unicode="&#x134;" horiz-adv-x="227" 
d="M-24 -207l-71 92q84 52 95 115l117 666h138l-118 -666q-12 -70 -48.5 -117t-112.5 -90zM333 770l-63 -63q-47 36 -66 54q-16 -12 -86 -54l-46 69q17 12 68.5 47t81.5 56q23 -24 111 -109z" />
    <glyph glyph-name="jcircumflex" unicode="&#x135;" horiz-adv-x="213" 
d="M215 496l-91 -519q-11 -60 -48 -103.5t-101 -80.5l-68 85q77 55 87 110l85 488zM291 600l-63 -63q-35 29 -63 59q-27 -22 -84 -59l-46 69q113 82 148 108q31 -35 108 -114z" />
    <glyph glyph-name="Kcommaaccent" unicode="&#x136;" horiz-adv-x="476" 
d="M279 0l-71 340l161 326h158l-179 -331l79 -335h-148zM138 0h-138l117 666h138zM265 -59l-23 -132l-85 -125l-50 30l50 95h-47l23 132h132z" />
    <glyph glyph-name="kcommaaccent" unicode="&#x137;" horiz-adv-x="411" 
d="M177 246l127 251l139 -22l-131 -237l61 -238h-138zM127 0h-132l121 686l135 20zM235 -59l-23 -132l-85 -125l-50 30l50 95h-47l23 132h132z" />
    <glyph glyph-name="kgreenlandic" unicode="&#x138;" horiz-adv-x="411" 
d="M177 246l127 251l139 -22l-131 -237l61 -238h-138zM80 487l133 3l-86 -490h-132z" />
    <glyph glyph-name="Lacute" unicode="&#x139;" horiz-adv-x="369" 
d="M302 0h-302l117 666h138l-96 -546h164zM189 707l-49 84q82 51 131 88l54 -91q-53 -36 -136 -81z" />
    <glyph glyph-name="lacute" unicode="&#x13a;" horiz-adv-x="212" 
d="M127 0h-132l121 686l135 20zM174 747l-49 84q82 51 131 88l54 -91q-53 -36 -136 -81z" />
    <glyph glyph-name="Lcommaaccent" unicode="&#x13b;" horiz-adv-x="369" 
d="M302 0h-302l117 666h138l-96 -546h164zM211 -59l-23 -132l-85 -125l-50 30l50 95h-47l23 132h132z" />
    <glyph glyph-name="lcommaaccent" unicode="&#x13c;" horiz-adv-x="212" 
d="M127 0h-132l121 686l135 20zM117 -59l-23 -132l-85 -125l-50 30l50 95h-47l23 132h132z" />
    <glyph glyph-name="Lcaron" unicode="&#x13d;" horiz-adv-x="369" 
d="M397 552l-72 -91l-37 25l43 73h-42l18 107h110zM302 0h-302l117 666h138l-96 -546h164z" />
    <glyph glyph-name="lcaron" unicode="&#x13e;" horiz-adv-x="325" 
d="M395 572l-72 -91l-37 25l43 73h-42l18 107h110zM127 0h-132l121 686l135 20z" />
    <glyph glyph-name="Ldot" unicode="&#x13f;" horiz-adv-x="369" 
d="M302 0h-302l117 666h138l-96 -546h164zM334 201h-127l25 141h127z" />
    <glyph glyph-name="ldot" unicode="&#x140;" horiz-adv-x="357" 
d="M127 0h-132l121 686l135 20zM327 199h-125l25 146h125z" />
    <glyph glyph-name="Lslash" unicode="&#x141;" horiz-adv-x="400" 
d="M25 213l-25 98l83 31l57 324h138l-47 -268l105 41l28 -96l-154 -59l-28 -164h164l-21 -120h-302l40 228z" />
    <glyph glyph-name="lslash" unicode="&#x142;" horiz-adv-x="301" 
d="M35 169l-22 95l72 27l70 395l135 20l-63 -361l55 22l26 -93l-101 -39l-41 -235h-132l32 181z" />
    <glyph glyph-name="Nacute" unicode="&#x143;" horiz-adv-x="521" 
d="M296 0l-96 380l-67 -380h-133l117 666h134l97 -380l67 380h133l-117 -666h-135zM310 707l-49 84q82 51 131 88l54 -91q-53 -36 -136 -81z" />
    <glyph glyph-name="nacute" unicode="&#x144;" horiz-adv-x="422" 
d="M342 0h-132l61 346q4 27 -18 27q-26 0 -64 -20l-62 -353h-132l83 475l114 21l5 -47q66 48 131 48q41 0 63 -20t22 -58q0 -14 -2 -28zM236 537l-49 84q87 54 138 93l54 -91q-49 -33 -143 -86z" />
    <glyph glyph-name="Ncommaaccent" unicode="&#x145;" horiz-adv-x="521" 
d="M296 0l-96 380l-67 -380h-133l117 666h134l97 -380l67 380h133l-117 -666h-135zM273 -59l-23 -132l-85 -125l-50 30l50 95h-47l23 132h132z" />
    <glyph glyph-name="ncommaaccent" unicode="&#x146;" horiz-adv-x="422" 
d="M342 0h-132l61 346q4 27 -18 27q-26 0 -64 -20l-62 -353h-132l83 475l114 21l5 -47q66 48 131 48q41 0 63 -20t22 -58q0 -14 -2 -28zM226 -59l-23 -132l-85 -125l-50 30l50 95h-47l23 132h132z" />
    <glyph glyph-name="Ncaron" unicode="&#x147;" horiz-adv-x="521" 
d="M296 0l-96 380l-67 -380h-133l117 666h134l97 -380l67 380h133l-117 -666h-135zM221 816l63 63q47 -36 66 -54q16 12 86 54l46 -69q-17 -12 -68.5 -47t-81.5 -56q-23 24 -111 109z" />
    <glyph glyph-name="ncaron" unicode="&#x148;" horiz-adv-x="422" 
d="M342 0h-132l61 346q4 27 -18 27q-26 0 -64 -20l-62 -353h-132l83 475l114 21l5 -47q66 48 131 48q41 0 63 -20t22 -58q0 -14 -2 -28zM155 651l63 63q35 -29 63 -59q27 22 84 59l46 -69q-113 -82 -148 -108q-31 35 -108 114z" />
    <glyph glyph-name="napostrophe" unicode="&#x149;" horiz-adv-x="537" 
d="M210 666l-23 -132l-87 -126l-50 30l54 96h-47l23 132h130zM457 0h-132l61 346q4 27 -18 27q-26 0 -64 -20l-62 -353h-132l83 475l114 21l5 -47q66 48 131 48q41 0 63 -20t22 -58q0 -14 -2 -28z" />
    <glyph glyph-name="Eng" unicode="&#x14a;" horiz-adv-x="521" 
d="M271 -207l-71 84q66 46 99 127l-99 376l-67 -380h-133l117 666h134l97 -380l67 380h133l-110 -627q-15 -84 -56 -141.5t-111 -104.5z" />
    <glyph glyph-name="eng" unicode="&#x14b;" horiz-adv-x="422" 
d="M411 392l-62 -353q-28 -162 -147 -246l-73 77q68 56 86 158l56 318q4 27 -18 27q-26 0 -64 -20l-62 -353h-132l83 475l114 21l5 -47q66 48 131 48q41 0 63 -20t22 -58q0 -11 -2 -27z" />
    <glyph glyph-name="Omacron" unicode="&#x14c;" horiz-adv-x="474" 
d="M478 471l-49 -278q-18 -102 -70 -153.5t-168 -51.5q-89 0 -131 41t-42 112q0 22 5 52l49 278q19 108 70.5 157.5t166.5 49.5q174 0 174 -152q0 -27 -5 -55zM289 181l54 306q3 15 3 27q0 23 -12.5 33.5t-43.5 10.5q-38 0 -55 -17t-23 -54l-54 -306q-3 -17 -3 -27
q0 -46 56 -46q37 0 54.5 18t23.5 55zM436 716h-247l18 103h247z" />
    <glyph glyph-name="omacron" unicode="&#x14d;" horiz-adv-x="413" 
d="M176 -10q-73 0 -120.5 39.5t-47.5 109.5q0 21 3 37l26 148q15 88 60 130.5t133 42.5q74 0 123.5 -35t49.5 -104q0 -16 -3 -34l-27 -154q-15 -89 -59.5 -134.5t-137.5 -45.5zM237 148l33 186q10 53 -41 53q-26 0 -39.5 -11t-17.5 -36l-33 -186q-4 -23 7 -38.5t36 -15.5
q47 0 55 48zM378 546h-237l18 100h237z" />
    <glyph glyph-name="Obreve" unicode="&#x14e;" horiz-adv-x="474" 
d="M478 471l-49 -278q-18 -102 -70 -153.5t-168 -51.5q-89 0 -131 41t-42 112q0 22 5 52l49 278q19 108 70.5 157.5t166.5 49.5q174 0 174 -152q0 -27 -5 -55zM289 181l54 306q3 15 3 27q0 23 -12.5 33.5t-43.5 10.5q-38 0 -55 -17t-23 -54l-54 -306q-3 -17 -3 -27
q0 -46 56 -46q37 0 54.5 18t23.5 55zM385 852l85 -29q-42 -116 -156 -116q-48 0 -80.5 31t-36.5 85l89 29q4 -58 42 -58q23 0 35.5 15t21.5 43z" />
    <glyph glyph-name="obreve" unicode="&#x14f;" horiz-adv-x="413" 
d="M176 -10q-73 0 -120.5 39.5t-47.5 109.5q0 21 3 37l26 148q15 88 60 130.5t133 42.5q74 0 123.5 -35t49.5 -104q0 -16 -3 -34l-27 -154q-15 -89 -59.5 -134.5t-137.5 -45.5zM237 148l33 186q10 53 -41 53q-26 0 -39.5 -11t-17.5 -36l-33 -186q-4 -23 7 -38.5t36 -15.5
q47 0 55 48zM326 682l85 -29q-42 -116 -156 -116q-48 0 -80.5 31t-36.5 85l89 29q4 -58 42 -58q23 0 35.5 15t21.5 43z" />
    <glyph glyph-name="Ohungarumlaut" unicode="&#x150;" horiz-adv-x="474" 
d="M478 471l-49 -278q-18 -102 -70 -153.5t-168 -51.5q-89 0 -131 41t-42 112q0 22 5 52l49 278q19 108 70.5 157.5t166.5 49.5q174 0 174 -152q0 -27 -5 -55zM289 181l54 306q3 15 3 27q0 23 -12.5 33.5t-43.5 10.5q-38 0 -55 -17t-23 -54l-54 -306q-3 -17 -3 -27
q0 -46 56 -46q37 0 54.5 18t23.5 55zM257 707l-80 48q32 53 69 124l90 -50q-45 -75 -79 -122zM418 707l-80 48q32 53 69 124l90 -50q-45 -75 -79 -122z" />
    <glyph glyph-name="ohungarumlaut" unicode="&#x151;" horiz-adv-x="413" 
d="M176 -10q-73 0 -120.5 39.5t-47.5 109.5q0 21 3 37l26 148q15 88 60 130.5t133 42.5q74 0 123.5 -35t49.5 -104q0 -16 -3 -34l-27 -154q-15 -89 -59.5 -134.5t-137.5 -45.5zM237 148l33 186q10 53 -41 53q-26 0 -39.5 -11t-17.5 -36l-33 -186q-4 -23 7 -38.5t36 -15.5
q47 0 55 48zM218 539l-80 48q32 52 71 128l90 -50q-49 -82 -81 -126zM369 539l-80 48q32 52 71 128l90 -50q-49 -82 -81 -126z" />
    <glyph glyph-name="OE" unicode="&#x152;" horiz-adv-x="698" 
d="M68 459q20 110 71 158.5t166 48.5h432l-21 -120h-199l-27 -150h182l-21 -120h-182l-27 -156h200l-21 -120h-430q-89 0 -131 41t-42 112q0 22 5 52zM285 546q-38 -1 -54.5 -18t-22.5 -53l-50 -282q-3 -17 -3 -27q0 -46 56 -46h93l75 426h-94z" />
    <glyph glyph-name="oe" unicode="&#x153;" horiz-adv-x="598" 
d="M448 202q-7 -3 -74 -26l-8 -46q-5 -31 27 -31q54 0 126 41l33 -94q-91 -56 -180 -56q-64 0 -91 41q-58 -41 -120 -41q-76 0 -115.5 38.5t-39.5 104.5q0 16 4 38l27 153q16 91 62 132t131 41q72 0 118 -44q51 44 122 44q60 0 94 -33.5t34 -90.5q0 -62 -37 -102t-113 -69z
M238 153l30 172q2 12 2 20q0 38 -42 38q-49 0 -57 -48l-32 -182q-1 -6 -1 -12q0 -37 42 -37q50 0 58 49zM423 299q56 19 56 58q0 34 -34 34q-33 0 -41 -44l-10 -57z" />
    <glyph glyph-name="Racute" unicode="&#x154;" horiz-adv-x="491" 
d="M180 243l-42 -243h-138l117 666h223q78 0 116.5 -29t38.5 -94q0 -19 -5 -47l-15 -84q-11 -60 -33 -94t-76 -54l73 -264h-153l-60 243h-46zM234 548l-33 -187h73q29 0 43.5 12t19.5 41l15 80q2 12 2 19q0 35 -44 35h-76zM282 707l-49 84q82 51 131 88l54 -91
q-53 -36 -136 -81z" />
    <glyph glyph-name="racute" unicode="&#x155;" horiz-adv-x="266" 
d="M278 497l17 -127q-57 -16 -110 -43l-58 -327h-132l84 476l112 20l1 -68q36 53 86 69zM175 537l-49 84q87 54 138 93l54 -91q-49 -33 -143 -86z" />
    <glyph glyph-name="Rcommaaccent" unicode="&#x156;" horiz-adv-x="491" 
d="M180 243l-42 -243h-138l117 666h223q78 0 116.5 -29t38.5 -94q0 -19 -5 -47l-15 -84q-11 -60 -33 -94t-76 -54l73 -264h-153l-60 243h-46zM234 548l-33 -187h73q29 0 43.5 12t19.5 41l15 80q2 12 2 19q0 35 -44 35h-76zM273 -59l-23 -132l-85 -125l-50 30l50 95h-47
l23 132h132z" />
    <glyph glyph-name="rcommaaccent" unicode="&#x157;" horiz-adv-x="266" 
d="M278 497l17 -127q-57 -16 -110 -43l-58 -327h-132l84 476l112 20l1 -68q36 53 86 69zM120 -59l-23 -132l-85 -125l-50 30l50 95h-47l23 132h132z" />
    <glyph glyph-name="Rcaron" unicode="&#x158;" horiz-adv-x="491" 
d="M180 243l-42 -243h-138l117 666h223q78 0 116.5 -29t38.5 -94q0 -19 -5 -47l-15 -84q-11 -60 -33 -94t-76 -54l73 -264h-153l-60 243h-46zM234 548l-33 -187h73q29 0 43.5 12t19.5 41l15 80q2 12 2 19q0 35 -44 35h-76zM194 816l63 63q47 -36 66 -54q16 12 86 54l46 -69
q-17 -12 -68.5 -47t-81.5 -56q-23 24 -111 109z" />
    <glyph glyph-name="rcaron" unicode="&#x159;" horiz-adv-x="266" 
d="M278 497l17 -127q-57 -16 -110 -43l-58 -327h-132l84 476l112 20l1 -68q36 53 86 69zM87 651l63 63q35 -29 63 -59q27 22 84 59l46 -69q-113 -82 -148 -108q-31 35 -108 114z" />
    <glyph glyph-name="Sacute" unicode="&#x15a;" horiz-adv-x="391" 
d="M361 181q-18 -103 -68 -148t-150 -45q-88 0 -151 29l26 116q62 -25 119 -25q41 0 60 15.5t26 56.5q3 18 3 30q0 23 -11.5 35.5t-41.5 28.5q-60 32 -85 68.5t-25 90.5q0 32 8 78q16 95 59 131t134 36q39 0 86 -9t72 -22l-26 -115q-61 26 -115 26q-38 0 -53 -12t-21 -47
q-3 -15 -3 -26q0 -19 13 -33t50 -34q56 -31 79 -63.5t23 -85.5q0 -30 -8 -76zM254 707l-49 84q82 51 131 88l54 -91q-53 -36 -136 -81z" />
    <glyph glyph-name="sacute" unicode="&#x15b;" horiz-adv-x="321" 
d="M291 137q-13 -75 -53 -111t-114 -36q-75 0 -134 27l26 104q44 -22 100 -22q23 0 32 7.5t13 29.5q1 5 1.5 9.5t-0.5 8.5t-1.5 6.5t-3 5.5t-4 4.5t-6 4t-6.5 3.5l-8 4t-9 4q-50 24 -69 49.5t-19 64.5q0 20 7 62q12 71 47.5 103t107.5 32q79 0 136 -30l-26 -104
q-50 25 -94 25q-22 0 -31 -7.5t-13 -28.5q-3 -18 2.5 -26.5t25.5 -18.5q56 -29 77 -51.5t21 -65.5q0 -27 -5 -53zM194 537l-49 84q87 54 138 93l54 -91q-49 -33 -143 -86z" />
    <glyph glyph-name="Scircumflex" unicode="&#x15c;" horiz-adv-x="391" 
d="M361 181q-18 -103 -68 -148t-150 -45q-88 0 -151 29l26 116q62 -25 119 -25q41 0 60 15.5t26 56.5q3 18 3 30q0 23 -11.5 35.5t-41.5 28.5q-60 32 -85 68.5t-25 90.5q0 32 8 78q16 95 59 131t134 36q39 0 86 -9t72 -22l-26 -115q-61 26 -115 26q-38 0 -53 -12t-21 -47
q-3 -15 -3 -26q0 -19 13 -33t50 -34q56 -31 79 -63.5t23 -85.5q0 -30 -8 -76zM418 770l-63 -63q-47 36 -66 54q-16 -12 -86 -54l-46 69q17 12 68.5 47t81.5 56q23 -24 111 -109z" />
    <glyph glyph-name="scircumflex" unicode="&#x15d;" horiz-adv-x="321" 
d="M291 137q-13 -75 -53 -111t-114 -36q-75 0 -134 27l26 104q44 -22 100 -22q23 0 32 7.5t13 29.5q1 5 1.5 9.5t-0.5 8.5t-1.5 6.5t-3 5.5t-4 4.5t-6 4t-6.5 3.5l-8 4t-9 4q-50 24 -69 49.5t-19 64.5q0 20 7 62q12 71 47.5 103t107.5 32q79 0 136 -30l-26 -104
q-50 25 -94 25q-22 0 -31 -7.5t-13 -28.5q-3 -18 2.5 -26.5t25.5 -18.5q56 -29 77 -51.5t21 -65.5q0 -27 -5 -53zM351 600l-63 -63q-35 29 -63 59q-27 -22 -84 -59l-46 69q113 82 148 108q31 -35 108 -114z" />
    <glyph glyph-name="Scedilla" unicode="&#x15e;" horiz-adv-x="391" 
d="M361 181q-17 -96 -61 -141t-129 -51l-8 -31l12 -2q62 -10 62 -66q0 -44 -31.5 -70.5t-83.5 -26.5q-42 0 -79 14l15 58q18 -8 40 -8q33 0 33 24q0 17 -27 22l-25 5l27 82q-71 7 -114 27l26 116q62 -25 119 -25q41 0 60 15.5t26 56.5q3 18 3 30q0 23 -11.5 35.5t-41.5 28.5
q-60 32 -85 68.5t-25 90.5q0 32 8 78q16 95 59 131t134 36q39 0 86 -9t72 -22l-26 -115q-61 26 -115 26q-38 0 -53 -12t-21 -47q-3 -15 -3 -26q0 -19 13 -33t50 -34q56 -31 79 -63.5t23 -85.5q0 -30 -8 -76z" />
    <glyph glyph-name="Scedilla" unicode="&#xf6c1;" horiz-adv-x="391" 
d="M361 181q-17 -96 -61 -141t-129 -51l-8 -31l12 -2q62 -10 62 -66q0 -44 -31.5 -70.5t-83.5 -26.5q-42 0 -79 14l15 58q18 -8 40 -8q33 0 33 24q0 17 -27 22l-25 5l27 82q-71 7 -114 27l26 116q62 -25 119 -25q41 0 60 15.5t26 56.5q3 18 3 30q0 23 -11.5 35.5t-41.5 28.5
q-60 32 -85 68.5t-25 90.5q0 32 8 78q16 95 59 131t134 36q39 0 86 -9t72 -22l-26 -115q-61 26 -115 26q-38 0 -53 -12t-21 -47q-3 -15 -3 -26q0 -19 13 -33t50 -34q56 -31 79 -63.5t23 -85.5q0 -30 -8 -76z" />
    <glyph glyph-name="scedilla" unicode="&#x15f;" horiz-adv-x="321" 
d="M291 137q-12 -71 -48.5 -106.5t-103.5 -39.5l-8 -33l12 -2q62 -10 62 -66q0 -44 -31.5 -70.5t-83.5 -26.5q-42 0 -79 14l15 58q18 -8 40 -8q33 0 33 24q0 17 -27 22l-25 5l29 86q-59 10 -86 23l26 104q44 -22 100 -22q23 0 32 7.5t13 29.5q1 5 1.5 9.5t-0.5 8.5t-1.5 6.5
t-3 5.5t-4 4.5t-6 4t-6.5 3.5l-8 4t-9 4q-50 24 -69 49.5t-19 64.5q0 20 7 62q12 71 47.5 103t107.5 32q79 0 136 -30l-26 -104q-50 25 -94 25q-22 0 -31 -7.5t-13 -28.5q-3 -18 2.5 -26.5t25.5 -18.5q56 -29 77 -51.5t21 -65.5q0 -27 -5 -53z" />
    <glyph glyph-name="scedilla" unicode="&#xf6c2;" horiz-adv-x="321" 
d="M291 137q-12 -71 -48.5 -106.5t-103.5 -39.5l-8 -33l12 -2q62 -10 62 -66q0 -44 -31.5 -70.5t-83.5 -26.5q-42 0 -79 14l15 58q18 -8 40 -8q33 0 33 24q0 17 -27 22l-25 5l29 86q-59 10 -86 23l26 104q44 -22 100 -22q23 0 32 7.5t13 29.5q1 5 1.5 9.5t-0.5 8.5t-1.5 6.5
t-3 5.5t-4 4.5t-6 4t-6.5 3.5l-8 4t-9 4q-50 24 -69 49.5t-19 64.5q0 20 7 62q12 71 47.5 103t107.5 32q79 0 136 -30l-26 -104q-50 25 -94 25q-22 0 -31 -7.5t-13 -28.5q-3 -18 2.5 -26.5t25.5 -18.5q56 -29 77 -51.5t21 -65.5q0 -27 -5 -53z" />
    <glyph glyph-name="Scaron" unicode="&#x160;" horiz-adv-x="391" 
d="M361 181q-18 -103 -68 -148t-150 -45q-88 0 -151 29l26 116q62 -25 119 -25q41 0 60 15.5t26 56.5q3 18 3 30q0 23 -11.5 35.5t-41.5 28.5q-60 32 -85 68.5t-25 90.5q0 32 8 78q16 95 59 131t134 36q39 0 86 -9t72 -22l-26 -115q-61 26 -115 26q-38 0 -53 -12t-21 -47
q-3 -15 -3 -26q0 -19 13 -33t50 -34q56 -31 79 -63.5t23 -85.5q0 -30 -8 -76zM168 816l63 63q47 -36 66 -54q16 12 86 54l46 -69q-17 -12 -68.5 -47t-81.5 -56q-23 24 -111 109z" />
    <glyph glyph-name="scaron" unicode="&#x161;" horiz-adv-x="321" 
d="M291 137q-13 -75 -53 -111t-114 -36q-75 0 -134 27l26 104q44 -22 100 -22q23 0 32 7.5t13 29.5q1 5 1.5 9.5t-0.5 8.5t-1.5 6.5t-3 5.5t-4 4.5t-6 4t-6.5 3.5l-8 4t-9 4q-50 24 -69 49.5t-19 64.5q0 20 7 62q12 71 47.5 103t107.5 32q79 0 136 -30l-26 -104
q-50 25 -94 25q-22 0 -31 -7.5t-13 -28.5q-3 -18 2.5 -26.5t25.5 -18.5q56 -29 77 -51.5t21 -65.5q0 -27 -5 -53zM104 651l63 63q35 -29 63 -59q27 22 84 59l46 -69q-113 -82 -148 -108q-31 35 -108 114z" />
    <glyph glyph-name="Tcommaaccent" unicode="&#x162;" horiz-adv-x="380" 
d="M428 546h-117l-96 -546h-138l96 546h-116l21 120h371zM203 -59l-23 -132l-85 -125l-50 30l50 95h-47l23 132h132z" />
    <glyph glyph-name="Tcommaaccent" unicode="&#x21a;" horiz-adv-x="380" 
d="M428 546h-117l-96 -546h-138l96 546h-116l21 120h371zM203 -59l-23 -132l-85 -125l-50 30l50 95h-47l23 132h132z" />
    <glyph glyph-name="tcommaaccent" unicode="&#x163;" horiz-adv-x="290" 
d="M185 102q33 0 62 12l5 -99q-52 -25 -115 -25q-50 0 -79.5 26.5t-29.5 72.5q0 13 2 25l46 259h-51l20 114h51l22 126l135 11l-24 -137h92l-23 -114h-90l-43 -248q-4 -23 20 -23zM185 -59l-23 -132l-85 -125l-50 30l50 95h-47l23 132h132z" />
    <glyph glyph-name="tcommaaccent" unicode="&#x21b;" horiz-adv-x="290" 
d="M185 102q33 0 62 12l5 -99q-52 -25 -115 -25q-50 0 -79.5 26.5t-29.5 72.5q0 13 2 25l46 259h-51l20 114h51l22 126l135 11l-24 -137h92l-23 -114h-90l-43 -248q-4 -23 20 -23zM185 -59l-23 -132l-85 -125l-50 30l50 95h-47l23 132h132z" />
    <glyph glyph-name="Tcaron" unicode="&#x164;" horiz-adv-x="380" 
d="M428 546h-117l-96 -546h-138l96 546h-116l21 120h371zM154 816l63 63q47 -36 66 -54q16 12 86 54l46 -69q-17 -12 -68.5 -47t-81.5 -56q-23 24 -111 109z" />
    <glyph glyph-name="tcaron" unicode="&#x165;" horiz-adv-x="327" 
d="M445 629l-78 -101l-37 26l46 82h-40l20 114h110zM184 102q36 0 63 12l5 -99q-50 -25 -115 -25q-50 0 -79.5 26.5t-29.5 72.5q0 13 2 25l46 259h-51l20 114h51l22 126l135 11l-24 -137h92l-23 -114h-90l-43 -248q-4 -23 19 -23z" />
    <glyph glyph-name="Tbar" unicode="&#x166;" horiz-adv-x="380" 
d="M41 277l17 95h85l31 174h-116l21 120h371l-21 -120h-117l-31 -174h87l-17 -95h-87l-48 -277h-138l48 277h-85z" />
    <glyph glyph-name="tbar" unicode="&#x167;" horiz-adv-x="290" 
d="M282 296l-17 -93h-86l-13 -78q-4 -23 20 -23q33 0 62 12l5 -99q-52 -25 -115 -25q-50 0 -79.5 26.5t-29.5 72.5q0 13 2 25l16 89h-51l17 93h50l14 77h-51l20 114h51l22 126l135 11l-24 -137h92l-23 -114h-90l-14 -77h87z" />
    <glyph glyph-name="Utilde" unicode="&#x168;" horiz-adv-x="483" 
d="M378 666h138l-87 -490q-17 -93 -71 -140.5t-164 -47.5q-80 0 -125.5 42.5t-45.5 111.5q0 15 4 39l86 485h138l-87 -490q-2 -14 -2 -22q0 -46 54 -46q36 0 52.5 15.5t22.5 46.5zM320 725q-31 20 -39 20q-19 0 -43 -36l-58 40q27 52 49 73t59 21q28 0 56 -19q29 -20 39 -20
q12 0 19.5 7.5t18.5 26.5l58 -37q-23 -46 -46 -70t-57 -24q-30 0 -56 18z" />
    <glyph glyph-name="utilde" unicode="&#x169;" horiz-adv-x="418" 
d="M75 482l133 8l-61 -350q-5 -28 18 -28q27 0 59 18l62 352l133 8l-86 -490h-112l-4 38q-71 -48 -129 -48q-41 0 -62 23.5t-21 61.5q0 11 3 27zM267 555q-31 20 -39 20q-19 0 -43 -36l-58 40q27 52 49 73t59 21q28 0 56 -19q29 -20 39 -20q12 0 19.5 7.5t18.5 26.5l58 -37
q-23 -46 -46 -70t-57 -24q-30 0 -56 18z" />
    <glyph glyph-name="Umacron" unicode="&#x16a;" horiz-adv-x="483" 
d="M378 666h138l-87 -490q-17 -93 -71 -140.5t-164 -47.5q-80 0 -125.5 42.5t-45.5 111.5q0 15 4 39l86 485h138l-87 -490q-2 -14 -2 -22q0 -46 54 -46q36 0 52.5 15.5t22.5 46.5zM447 716h-247l18 103h247z" />
    <glyph glyph-name="umacron" unicode="&#x16b;" horiz-adv-x="418" 
d="M75 482l133 8l-61 -350q-5 -28 18 -28q27 0 59 18l62 352l133 8l-86 -490h-112l-4 38q-71 -48 -129 -48q-41 0 -62 23.5t-21 61.5q0 11 3 27zM377 546h-237l18 100h237z" />
    <glyph glyph-name="Ubreve" unicode="&#x16c;" horiz-adv-x="483" 
d="M378 666h138l-87 -490q-17 -93 -71 -140.5t-164 -47.5q-80 0 -125.5 42.5t-45.5 111.5q0 15 4 39l86 485h138l-87 -490q-2 -14 -2 -22q0 -46 54 -46q36 0 52.5 15.5t22.5 46.5zM394 852l85 -29q-42 -116 -156 -116q-48 0 -80.5 31t-36.5 85l89 29q4 -58 42 -58
q23 0 35.5 15t21.5 43z" />
    <glyph glyph-name="ubreve" unicode="&#x16d;" horiz-adv-x="418" 
d="M75 482l133 8l-61 -350q-5 -28 18 -28q27 0 59 18l62 352l133 8l-86 -490h-112l-4 38q-71 -48 -129 -48q-41 0 -62 23.5t-21 61.5q0 11 3 27zM330 682l85 -29q-42 -116 -156 -116q-48 0 -80.5 31t-36.5 85l89 29q4 -58 42 -58q23 0 35.5 15t21.5 43z" />
    <glyph glyph-name="Uring" unicode="&#x16e;" horiz-adv-x="483" 
d="M378 666h138l-87 -490q-17 -93 -71 -140.5t-164 -47.5q-80 0 -125.5 42.5t-45.5 111.5q0 15 4 39l86 485h138l-87 -490q-2 -14 -2 -22q0 -46 54 -46q36 0 52.5 15.5t22.5 46.5zM431 811q0 -45 -28 -74.5t-77 -29.5q-34 0 -56 20.5t-22 52.5q0 48 28.5 75.5t75.5 27.5
q37 0 58 -19.5t21 -52.5zM333 758q18 0 28 13.5t10 34.5q0 26 -25 26q-18 0 -28.5 -13.5t-10.5 -34.5q0 -26 26 -26z" />
    <glyph glyph-name="uring" unicode="&#x16f;" horiz-adv-x="418" 
d="M75 482l133 8l-61 -350q-5 -28 18 -28q27 0 59 18l62 352l133 8l-86 -490h-112l-4 38q-71 -48 -129 -48q-41 0 -62 23.5t-21 61.5q0 11 3 27zM364 641q0 -45 -28 -74.5t-77 -29.5q-34 0 -56 20.5t-22 52.5q0 48 28.5 75.5t75.5 27.5q37 0 58 -19.5t21 -52.5zM266 588
q18 0 28 13.5t10 34.5q0 26 -25 26q-18 0 -28.5 -13.5t-10.5 -34.5q0 -26 26 -26z" />
    <glyph glyph-name="Uhungarumlaut" unicode="&#x170;" horiz-adv-x="483" 
d="M378 666h138l-87 -490q-17 -93 -71 -140.5t-164 -47.5q-80 0 -125.5 42.5t-45.5 111.5q0 15 4 39l86 485h138l-87 -490q-2 -14 -2 -22q0 -46 54 -46q36 0 52.5 15.5t22.5 46.5zM265 707l-80 48q32 53 69 124l90 -50q-45 -75 -79 -122zM426 707l-80 48q32 53 69 124
l90 -50q-45 -75 -79 -122z" />
    <glyph glyph-name="uhungarumlaut" unicode="&#x171;" horiz-adv-x="418" 
d="M75 482l133 8l-61 -350q-5 -28 18 -28q27 0 59 18l62 352l133 8l-86 -490h-112l-4 38q-71 -48 -129 -48q-41 0 -62 23.5t-21 61.5q0 11 3 27zM215 539l-80 48q32 52 71 128l90 -50q-49 -82 -81 -126zM366 539l-80 48q32 52 71 128l90 -50q-49 -82 -81 -126z" />
    <glyph glyph-name="Uogonek" unicode="&#x172;" horiz-adv-x="483" 
d="M378 666h138l-87 -490q-10 -56 -28 -89t-58 -63q-34 -26 -53.5 -42t-39.5 -41.5t-20 -45.5t25 -20q13 0 23 3l-7 -73q-24 -12 -61 -12q-44 0 -67 20t-23 55q0 69 77 120h-3q-80 0 -125.5 42.5t-45.5 111.5q0 15 4 39l86 485h138l-87 -490q-2 -14 -2 -22q0 -46 54 -46
q36 0 52.5 15.5t22.5 46.5z" />
    <glyph glyph-name="uogonek" unicode="&#x173;" horiz-adv-x="418" 
d="M221 0l-4 38q-71 -48 -129 -48q-41 0 -62 23.5t-21 61.5q0 11 3 27l67 380l133 8l-61 -350q-5 -28 18 -28q27 0 59 18l62 352l133 8l-86 -490q-76 -58 -76 -105q0 -20 25 -20q12 0 23 3l-7 -73q-24 -12 -61 -12q-43 0 -66.5 21.5t-23.5 57.5q0 72 74 128z" />
    <glyph glyph-name="Wcircumflex" unicode="&#x174;" horiz-adv-x="676" 
d="M471 666l9 -414l128 414h141l-232 -666h-133l-15 434l-164 -434h-132l-1 666h138l-15 -414l151 414h125zM555 770l-63 -63q-47 36 -66 54q-16 -12 -86 -54l-46 69q17 12 68.5 47t81.5 56q23 -24 111 -109z" />
    <glyph glyph-name="wcircumflex" unicode="&#x175;" horiz-adv-x="563" 
d="M180 168l80 190l-22 109l110 22l54 -327l33 191q4 23 4 45q0 32 -8 78l127 20q9 -36 9 -75t-8 -68l-95 -353h-129l-41 202l-85 -202h-125q-19 302 -56 472l125 19q28 -137 28 -268q0 -36 -1 -55zM442 600l-63 -63q-35 29 -63 59q-27 -22 -84 -59l-46 69q113 82 148 108
q31 -35 108 -114z" />
    <glyph glyph-name="Ycircumflex" unicode="&#x176;" horiz-adv-x="423" 
d="M503 666l-224 -426l-42 -240h-138l43 245l-78 421h150l23 -275l106 275h160zM424 770l-63 -63q-47 36 -66 54q-16 -12 -86 -54l-46 69q17 12 68.5 47t81.5 56q23 -24 111 -109z" />
    <glyph glyph-name="ycircumflex" unicode="&#x177;" horiz-adv-x="378" 
d="M119 0h-34l-51 472l133 20l23 -360l62 217q13 47 13 77q0 23 -4 50l130 20q9 -40 9 -68q0 -38 -20 -90l-126 -326q-34 -90 -75.5 -140.5t-126.5 -88.5l-51 98q84 38 118 119zM361 600l-63 -63q-35 29 -63 59q-27 -22 -84 -59l-46 69q113 82 148 108q31 -35 108 -114z" />
    <glyph glyph-name="Ydieresis" unicode="&#x178;" horiz-adv-x="423" 
d="M503 666l-224 -426l-42 -240h-138l43 245l-78 421h150l23 -275l106 275h160zM263 712h-106l23 129h106zM412 712h-106l23 129h106z" />
    <glyph glyph-name="Zacute" unicode="&#x179;" horiz-adv-x="409" 
d="M442 560l-275 -440h202l-21 -120h-343l-2 106l275 440h-202l21 120h345v-106zM258 707l-49 84q82 51 131 88l54 -91q-53 -36 -136 -81z" />
    <glyph glyph-name="zacute" unicode="&#x17a;" horiz-adv-x="342" 
d="M42 380l18 107h290l2 -92l-204 -288h158l-18 -107h-292l-4 92l203 288h-153zM176 537l-49 84q87 54 138 93l54 -91q-49 -33 -143 -86z" />
    <glyph glyph-name="Zdotaccent" unicode="&#x17b;" horiz-adv-x="409" 
d="M442 560l-275 -440h202l-21 -120h-343l-2 106l275 440h-202l21 120h345v-106zM355 728l-136 -20l25 147l136 20z" />
    <glyph glyph-name="zdotaccent" unicode="&#x17c;" horiz-adv-x="342" 
d="M42 380l18 107h290l2 -92l-204 -288h158l-18 -107h-292l-4 92l203 288h-153zM286 557l-136 -20l25 147l136 20z" />
    <glyph glyph-name="Zcaron" unicode="&#x17d;" horiz-adv-x="409" 
d="M442 560l-275 -440h202l-21 -120h-343l-2 106l275 440h-202l21 120h345v-106zM174 816l63 63q47 -36 66 -54q16 12 86 54l46 -69q-17 -12 -68.5 -47t-81.5 -56q-23 24 -111 109z" />
    <glyph glyph-name="zcaron" unicode="&#x17e;" horiz-adv-x="343" 
d="M42 380l18 107h290l2 -92l-204 -288h158l-18 -107h-292l-4 92l203 288h-153zM108 651l63 63q35 -29 63 -59q27 22 84 59l46 -69q-113 -82 -148 -108q-31 35 -108 114z" />
    <glyph glyph-name="florin" unicode="&#x192;" horiz-adv-x="431" 
d="M129 265h-72l31 116h74l46 162q22 75 60.5 105t111.5 30q56 0 96 -20l-27 -104q-30 9 -60 9q-24 0 -37 -10.5t-20 -37.5l-37 -134h88l-25 -116h-96l-80 -286q-21 -76 -60 -111t-105 -35q-51 0 -94 19l22 106q27 -10 53 -10t38 11.5t19 37.5z" />
    <glyph glyph-name="Aringacute" unicode="&#x1fa;" horiz-adv-x="458" 
d="M311 822l-45 75q62 39 120 80l50 -82q-43 -29 -125 -73zM396 719q0 -33 -19 -63l35 -656h-137l1 135h-129l-45 -135h-144l261 657q-6 13 -6 31q0 48 28.5 75.5t75.5 27.5q37 0 58 -19.5t21 -52.5zM278 522l-89 -266h88zM298 666q18 0 28 13.5t10 34.5q0 26 -25 26
q-18 0 -28.5 -13.5t-10.5 -34.5q0 -26 26 -26z" />
    <glyph glyph-name="aringacute" unicode="&#x1fb;" horiz-adv-x="413" 
d="M364 642q0 -45 -28 -74.5t-77 -29.5q-34 0 -56 20.5t-22 52.5q0 48 28.5 75.5t75.5 27.5q37 0 58 -19.5t21 -52.5zM266 589q18 0 28 13.5t10 34.5q0 26 -25 26q-18 0 -28.5 -13.5t-10.5 -34.5q0 -26 26 -26zM282 753l-45 75q62 39 120 80l50 -82q-43 -29 -125 -73z
M10 141l38 216q13 76 55 108t122 32q98 0 187 -48l-79 -449h-109l-1 51q-52 -61 -121 -61q-50 0 -73 30.5t-23 78.5q0 22 4 42zM224 134l43 248q-19 7 -41 7q-23 0 -33 -9t-15 -34l-34 -193q-2 -12 -2 -18q0 -27 24 -27q23 0 58 26z" />
    <glyph glyph-name="AEacute" unicode="&#x1fc;" horiz-adv-x="614" 
d="M-42 0l265 666h430l-21 -120h-249l8 -150h197l-21 -120h-170l8 -156h153l-21 -120h-262l1 135h-129l-45 -135h-144zM278 522l-89 -266h88zM312 707l-49 84q82 51 131 88l54 -91q-53 -36 -136 -81z" />
    <glyph glyph-name="aeacute" unicode="&#x1fd;" horiz-adv-x="572" 
d="M399 192q-22 -5 -50 -10l-8 -46q-2 -12 -2 -15q0 -22 28 -22q58 0 132 44l33 -94q-98 -59 -193 -59q-73 0 -105 41q-53 -41 -132 -41q-52 0 -82 35t-30 86q0 91 40 132.5t119 41.5h86l7 39q1 6 1 13q0 46 -54 46q-61 0 -116 -21l-14 104q62 31 152 31q79 0 113 -37
q42 37 116 37q63 0 98 -32t35 -95q0 -69 -38.5 -112t-135.5 -66zM158 95q28 0 54 12q-2 20 4 52l4 23h-52q-43 0 -43 -52q0 -35 33 -35zM406 298q47 13 47 58q0 35 -34 35q-33 0 -41 -44l-10 -58q22 4 38 9zM325 537l-49 84q87 54 138 93l54 -91q-49 -33 -143 -86z" />
    <glyph glyph-name="Oslashacute" unicode="&#x1fe;" horiz-adv-x="476" 
d="M-14 -30l54 84q-21 36 -21 87q0 22 5 52l49 278q19 108 70.5 157.5t166.5 49.5q71 0 114 -27l47 74l46 -29l-54 -84q21 -36 21 -86q0 -27 -5 -55l-49 -278q-18 -102 -70 -153.5t-168 -51.5q-69 0 -113 26l-48 -75zM213 487l-40 -226l172 268q-8 29 -54 29q-38 0 -55 -17
t-23 -54zM290 181l39 222l-171 -266q8 -29 54 -29q37 0 54.5 18t23.5 55zM285 707l-49 84q82 51 131 88l54 -91q-53 -36 -136 -81z" />
    <glyph glyph-name="oslashacute" unicode="&#x1ff;" horiz-adv-x="415" 
d="M-22 -23l53 71q-24 35 -24 85q0 16 4 38l27 153q16 91 63.5 132t144.5 41q61 0 103 -26l49 65l35 -28l-52 -69q23 -28 23 -78q0 -17 -3 -37l-27 -154q-16 -91 -62 -135.5t-146 -44.5q-61 0 -102 27l-51 -68zM172 335l-23 -130l119 158q-9 20 -39 20q-49 0 -57 -48z
M239 153l22 126l-118 -157q9 -18 38 -18q50 0 58 49zM228 537l-49 84q87 54 138 93l54 -91q-49 -33 -143 -86z" />
    <glyph glyph-name="Scommaaccent" unicode="&#x218;" horiz-adv-x="391" 
d="M361 181q-18 -103 -68 -148t-150 -45q-88 0 -151 29l26 116q62 -25 119 -25q41 0 60 15.5t26 56.5q3 18 3 30q0 23 -11.5 35.5t-41.5 28.5q-60 32 -85 68.5t-25 90.5q0 32 8 78q16 95 59 131t134 36q39 0 86 -9t72 -22l-26 -115q-61 26 -115 26q-38 0 -53 -12t-21 -47
q-3 -15 -3 -26q0 -19 13 -33t50 -34q56 -31 79 -63.5t23 -85.5q0 -30 -8 -76zM212 -59l-23 -132l-85 -125l-50 30l50 95h-47l23 132h132z" />
    <glyph glyph-name="scommaaccent" unicode="&#x219;" horiz-adv-x="321" 
d="M291 137q-13 -75 -53 -111t-114 -36q-75 0 -134 27l26 104q44 -22 100 -22q23 0 32 7.5t13 29.5q1 5 1.5 9.5t-0.5 8.5t-1.5 6.5t-3 5.5t-4 4.5t-6 4t-6.5 3.5l-8 4t-9 4q-50 24 -69 49.5t-19 64.5q0 20 7 62q12 71 47.5 103t107.5 32q79 0 136 -30l-26 -104
q-50 25 -94 25q-22 0 -31 -7.5t-13 -28.5q-3 -18 2.5 -26.5t25.5 -18.5q56 -29 77 -51.5t21 -65.5q0 -27 -5 -53zM177 -59l-23 -132l-85 -125l-50 30l50 95h-47l23 132h132z" />
    <glyph glyph-name="circumflex" unicode="&#x2c6;" horiz-adv-x="436" 
d="M392 600l-63 -63q-35 29 -63 59q-27 -22 -84 -59l-46 69q113 82 148 108q31 -35 108 -114z" />
    <glyph glyph-name="caron" unicode="&#x2c7;" horiz-adv-x="436" 
d="M132 651l63 63q35 -29 63 -59q27 22 84 59l46 -69q-113 -82 -148 -108q-31 35 -108 114z" />
    <glyph glyph-name="breve" unicode="&#x2d8;" horiz-adv-x="453" 
d="M342 682l85 -29q-42 -116 -156 -116q-48 0 -80.5 31t-36.5 85l89 29q4 -58 42 -58q23 0 35.5 15t21.5 43z" />
    <glyph glyph-name="dotaccent" unicode="&#x2d9;" horiz-adv-x="255" 
d="M248 557l-136 -20l25 147l136 20z" />
    <glyph glyph-name="ring" unicode="&#x2da;" horiz-adv-x="359" 
d="M320 641q0 -45 -28 -74.5t-77 -29.5q-34 0 -56 20.5t-22 52.5q0 48 28.5 75.5t75.5 27.5q37 0 58 -19.5t21 -52.5zM222 588q18 0 28 13.5t10 34.5q0 26 -25 26q-18 0 -28.5 -13.5t-10.5 -34.5q0 -26 26 -26z" />
    <glyph glyph-name="ogonek" unicode="&#x2db;" horiz-adv-x="330" 
d="M87 0h109q-76 -58 -76 -105q0 -20 25 -20q13 0 23 3l-7 -73q-24 -12 -61 -12q-44 0 -67 20t-23 55q0 78 77 132z" />
    <glyph glyph-name="tilde" unicode="&#x2dc;" horiz-adv-x="470" 
d="M274 555q-31 20 -39 20q-19 0 -43 -36l-58 40q27 52 49 73t59 21q28 0 56 -19q29 -20 39 -20q12 0 19.5 7.5t18.5 26.5l58 -37q-23 -46 -46 -70t-57 -24q-30 0 -56 18z" />
    <glyph glyph-name="hungarumlaut" unicode="&#x2dd;" horiz-adv-x="475" 
d="M226 539l-80 48q32 52 71 128l90 -50q-49 -82 -81 -126zM377 539l-80 48q32 52 71 128l90 -50q-49 -82 -81 -126z" />
    <glyph glyph-name="uni0312" unicode="&#x312;" horiz-adv-x="311" 
d="M134 537l23 129l76 113l51 -28l-46 -85h50l-23 -129h-131z" />
    <glyph glyph-name="uni0315" unicode="&#x315;" horiz-adv-x="310" 
d="M298 666l-23 -132l-87 -126l-50 30l54 96h-47l23 132h130z" />
    <glyph glyph-name="uni0326" unicode="&#x326;" horiz-adv-x="314" 
d="M182 -59l-23 -132l-85 -125l-50 30l50 95h-47l23 132h132z" />
    <glyph glyph-name="Omega" unicode="&#x3a9;" horiz-adv-x="501" 
d="M446 95l-16 -95h-191l15 88q47 34 58 97l52 293q3 18 3 31q0 29 -14.5 42t-47.5 13q-40 0 -60 -20t-28 -66l-52 -293q-3 -18 -3 -29q0 -42 27 -68l-15 -88h-191l16 95h69q-32 40 -32 91q0 15 5 45l42 235q10 55 23.5 90.5t40 65t70 43t108.5 13.5q90 0 132 -42.5
t42 -115.5q0 -22 -5 -54l-42 -235q-9 -50 -24.5 -81.5t-50.5 -54.5h69z" />
    <glyph glyph-name="pi" unicode="&#x3c0;" horiz-adv-x="554" 
d="M422 129q-1 -6 -1 -12q0 -23 28 -23q23 0 40 4l-5 -98q-44 -10 -89 -10q-53 0 -80.5 24t-27.5 66q0 13 3 28l48 269h-78q-39 -222 -96 -377h-134q65 167 105 377h-85l19 110h500l-19 -110h-84z" />
    <glyph glyph-name="Wgrave" unicode="&#x1e80;" horiz-adv-x="676" 
d="M471 666l9 -414l128 414h141l-232 -666h-133l-15 434l-164 -434h-132l-1 666h138l-15 -414l151 414h125zM485 782l-64 -75q-74 49 -116 88l71 84q32 -32 109 -97z" />
    <glyph glyph-name="wgrave" unicode="&#x1e81;" horiz-adv-x="563" 
d="M180 168l80 190l-22 109l110 22l54 -327l33 191q4 23 4 45q0 32 -8 78l127 20q9 -36 9 -75t-8 -68l-95 -353h-129l-41 202l-85 -202h-125q-19 302 -56 472l125 19q28 -137 28 -268q0 -36 -1 -55zM372 612l-64 -75q-66 44 -119 93l78 84q55 -60 105 -102z" />
    <glyph glyph-name="Wacute" unicode="&#x1e82;" horiz-adv-x="676" 
d="M471 666l9 -414l128 414h141l-232 -666h-133l-15 434l-164 -434h-132l-1 666h138l-15 -414l151 414h125zM394 707l-49 84q82 51 131 88l54 -91q-53 -36 -136 -81z" />
    <glyph glyph-name="wacute" unicode="&#x1e83;" horiz-adv-x="563" 
d="M180 168l80 190l-22 109l110 22l54 -327l33 191q4 23 4 45q0 32 -8 78l127 20q9 -36 9 -75t-8 -68l-95 -353h-129l-41 202l-85 -202h-125q-19 302 -56 472l125 19q28 -137 28 -268q0 -36 -1 -55zM279 537l-49 84q87 54 138 93l54 -91q-49 -33 -143 -86z" />
    <glyph glyph-name="Wdieresis" unicode="&#x1e84;" horiz-adv-x="676" 
d="M471 666l9 -414l128 414h141l-232 -666h-133l-15 434l-164 -434h-132l-1 666h138l-15 -414l151 414h125zM399 712h-106l23 129h106zM548 712h-106l23 129h106z" />
    <glyph glyph-name="wdieresis" unicode="&#x1e85;" horiz-adv-x="563" 
d="M180 168l80 190l-22 109l110 22l54 -327l33 191q4 23 4 45q0 32 -8 78l127 20q9 -36 9 -75t-8 -68l-95 -353h-129l-41 202l-85 -202h-125q-19 302 -56 472l125 19q28 -137 28 -268q0 -36 -1 -55zM300 544h-102l23 129h102zM445 544h-102l23 129h102z" />
    <glyph glyph-name="Ygrave" unicode="&#x1ef2;" horiz-adv-x="423" 
d="M503 666l-224 -426l-42 -240h-138l43 245l-78 421h150l23 -275l106 275h160zM352 782l-64 -75q-74 49 -116 88l71 84q32 -32 109 -97z" />
    <glyph glyph-name="ygrave" unicode="&#x1ef3;" horiz-adv-x="378" 
d="M119 0h-34l-51 472l133 20l23 -360l62 217q13 47 13 77q0 23 -4 50l130 20q9 -40 9 -68q0 -38 -20 -90l-126 -326q-34 -90 -75.5 -140.5t-126.5 -88.5l-51 98q84 38 118 119zM294 612l-64 -75q-66 44 -119 93l78 84q55 -60 105 -102z" />
    <glyph glyph-name="endash" unicode="&#x2013;" horiz-adv-x="456" 
d="M411 225h-373l20 115h373z" />
    <glyph glyph-name="emdash" unicode="&#x2014;" horiz-adv-x="621" 
d="M576 225h-538l20 115h538z" />
    <glyph glyph-name="quoteleft" unicode="&#x2018;" horiz-adv-x="206" 
d="M54 387l27 147l97 142l53 -36l-57 -107h38l-26 -146h-132z" />
    <glyph glyph-name="quoteright" unicode="&#x2019;" horiz-adv-x="204" 
d="M240 666l-27 -147l-97 -142l-53 36l57 107h-38l26 146h132z" />
    <glyph glyph-name="quotesinglbase" unicode="&#x201a;" horiz-adv-x="220" 
d="M162 146l-27 -147l-97 -142l-53 36l57 107h-38l26 146h132z" />
    <glyph glyph-name="quotedblleft" unicode="&#x201c;" horiz-adv-x="391" 
d="M239 387l27 147l97 142l53 -36l-57 -107h38l-26 -146h-132zM54 387l27 147l97 142l53 -36l-57 -107h38l-26 -146h-132z" />
    <glyph glyph-name="quotedblright" unicode="&#x201d;" horiz-adv-x="391" 
d="M240 666l-27 -147l-97 -142l-53 36l57 107h-38l26 146h132zM425 666l-27 -147l-97 -142l-53 36l57 107h-38l26 146h132z" />
    <glyph glyph-name="quotedblbase" unicode="&#x201e;" horiz-adv-x="405" 
d="M162 146l-27 -147l-97 -142l-53 36l57 107h-38l26 146h132zM347 146l-27 -147l-97 -142l-53 36l57 107h-38l26 146h132z" />
    <glyph glyph-name="dagger" unicode="&#x2020;" horiz-adv-x="391" 
d="M393 413h-105l-85 -483h-129l85 483h-97l20 110h97l25 143h129l-25 -143h105z" />
    <glyph glyph-name="daggerdbl" unicode="&#x2021;" horiz-adv-x="412" 
d="M127 183l41 230h-97l20 110h97l25 143h129l-25 -143h105l-20 -110h-105l-41 -230h97l-20 -110h-97l-25 -143h-129l25 143h-105l20 110h105z" />
    <glyph glyph-name="bullet" unicode="&#x2022;" horiz-adv-x="358" 
d="M65 323q0 56 35 93t89 37t89 -37t35 -93t-35 -93t-89 -37t-89 37t-35 93z" />
    <glyph glyph-name="ellipsis" unicode="&#x2026;" horiz-adv-x="642" 
d="M132 0h-132l27 154h132zM346 0h-132l27 154h132zM560 0h-132l27 154h132z" />
    <glyph glyph-name="perthousand" unicode="&#x2030;" horiz-adv-x="1088" 
d="M189 35l332 643l86 -48l-332 -642zM360 542l-20 -113q-11 -64 -47.5 -97.5t-110.5 -33.5q-59 0 -89.5 28t-30.5 75q0 11 3 28l21 118q12 69 47.5 100t113.5 31q57 0 86.5 -28t29.5 -77q0 -17 -3 -31zM195 559l-25 -142q-4 -28 26 -28q32 0 36 28l25 141q5 29 -26 29
q-32 0 -36 -28zM731 232l-20 -113q-11 -64 -47.5 -97.5t-110.5 -33.5q-59 0 -89.5 28t-30.5 75q0 11 3 28l21 118q12 69 47.5 100t113.5 31q57 0 86.5 -28t29.5 -77q0 -17 -3 -31zM566 249l-25 -142q-4 -28 26 -28q32 0 36 28l25 141q5 29 -26 29q-32 0 -36 -28zM1049 232
l-20 -113q-11 -64 -47.5 -97.5t-110.5 -33.5q-59 0 -89.5 28t-30.5 75q0 11 3 28l21 118q12 69 47.5 100t113.5 31q57 0 86.5 -28t29.5 -77q0 -17 -3 -31zM884 249l-25 -142q-4 -28 26 -28q32 0 36 28l25 141q5 29 -26 29q-32 0 -36 -28z" />
    <glyph glyph-name="guilsinglleft" unicode="&#x2039;" horiz-adv-x="307" 
d="M174 260l57 -159l-120 -41l-76 204l128 204l106 -66z" />
    <glyph glyph-name="guilsinglright" unicode="&#x203a;" horiz-adv-x="307" 
d="M135 268l-57 159l120 41l76 -204l-128 -204l-106 66z" />
    <glyph glyph-name="fraction" unicode="&#x2044;" horiz-adv-x="333" 
d="M-46 -4l375 695l75 -38l-377 -697z" />
    <glyph glyph-name="Euro" unicode="&#x20ac;" horiz-adv-x="448" 
d="M264 471l-1 -5h157l-19 -98h-155l-13 -71h157l-19 -98h-155l-1 -6q-4 -22 -4 -35q0 -30 16.5 -43t57.5 -13q53 0 91 11l2 -109q-48 -16 -123 -16q-88 0 -132.5 41.5t-44.5 111.5q0 23 4 47l2 11h-64l19 98h62l13 71h-64l19 98h62l3 16q20 107 66 151.5t148 44.5
q71 0 130 -23l-23 -109q-49 18 -99 18q-48 0 -64 -17.5t-28 -75.5z" />
    <glyph glyph-name="uni2113" unicode="&#x2113;" horiz-adv-x="460" 
d="M0 264l116 58l34 194q16 89 65 125.5t129 36.5q62 0 99.5 -32t37.5 -91q0 -97 -61.5 -160t-181.5 -125l-20 -116q-4 -25 5 -37.5t41 -12.5q35 0 76 13l10 -109q-63 -20 -133 -20q-64 0 -99.5 33t-35.5 91q0 18 3 36l8 47q-10 -5 -29.5 -14.5t-27.5 -13.5zM284 528
l-23 -127q96 59 96 137q0 32 -30 32q-36 0 -43 -42z" />
    <glyph glyph-name="uni2116" unicode="&#x2116;" horiz-adv-x="871" 
d="M880 533l-16 -90q-11 -70 -51.5 -107.5t-123.5 -37.5q-63 0 -94.5 31t-31.5 82q0 15 3 32l16 91q13 75 52 109t119 34q66 0 98 -30t32 -82q0 -15 -3 -32zM756 443l17 96q2 12 2 17q0 32 -35 32q-25 0 -35.5 -12t-16.5 -43l-16 -91q-5 -28 1.5 -41.5t31.5 -13.5
q26 0 36 13t15 43zM285 0l-87 369l-65 -369h-128l117 666h127l87 -370l66 370h127l-117 -666h-127zM531 163l17 93h268l-17 -93h-268z" />
    <glyph glyph-name="trademark" unicode="&#x2122;" horiz-adv-x="463" 
d="M250 613h-51v-145h-60v145h-51v53h162v-53zM428 555l-25 -62h-50l-25 62l-2 -87h-54l6 198h54l46 -109l46 109h54l6 -198h-54z" />
    <glyph glyph-name="estimated" unicode="&#x212e;" horiz-adv-x="784" 
d="M760 301h-572v-201q87 -76 215 -76q88 0 155.5 31t135.5 99l24 -24q-65 -67 -139.5 -103.5t-175.5 -36.5q-150 0 -253.5 98t-103.5 235t105.5 235t251.5 98t251.5 -98t105.5 -235v-22zM403 622q-124 0 -215 -80v-209h430v209q-91 80 -215 80z" />
    <glyph glyph-name="partialdiff" unicode="&#x2202;" horiz-adv-x="482" 
d="M319 678q85 0 130 -45.5t45 -111.5q0 -35 -12 -68l-101 -288q-33 -91 -84 -133t-131 -42q-67 0 -115.5 33t-48.5 100q0 29 10 56l29 81q27 78 62.5 108.5t107.5 30.5q61 0 108 -35l36 104q7 23 7 36q0 60 -81 60q-50 0 -89 -17l-17 106q62 25 144 25zM174 96q51 0 75 69
l38 108q-26 19 -59 19q-43 0 -60 -48l-32 -90q-4 -11 -4 -23q0 -35 42 -35z" />
    <glyph glyph-name="Delta" unicode="&#x2206;" horiz-adv-x="519" 
d="M405 666l44 -666h-469l277 666h148zM310 526l-153 -412h155z" />
    <glyph glyph-name="product" unicode="&#x220f;" horiz-adv-x="555" 
d="M392 -100h-130l115 652h-94l-115 -652h-130l115 652h-81l20 114h510l-20 -114h-75z" />
    <glyph glyph-name="summation" unicode="&#x2211;" horiz-adv-x="427" 
d="M-8 -100l20 115l181 276l-91 259l20 116h320l-20 -114h-178l88 -261l-178 -277h190l-20 -114h-332z" />
    <glyph glyph-name="minus" unicode="&#x2212;" horiz-adv-x="448" 
d="M413 286h-348v114h348v-114z" />
    <glyph glyph-name="radical" unicode="&#x221a;" horiz-adv-x="608" 
d="M671 730l-17 -96h-116l-251 -634h-145l-61 405l120 21l31 -287l220 591h219z" />
    <glyph glyph-name="infinity" unicode="&#x221e;" horiz-adv-x="794" 
d="M764 343q0 -88 -47 -132.5t-129 -44.5q-104 0 -176 88q-72 -88 -176 -88q-82 0 -129 44.5t-47 132.5t47 132.5t129 44.5q104 0 176 -88q72 88 176 88q82 0 129 -44.5t47 -132.5zM188 343q0 -29 16 -46t44 -17q50 0 80 63q-30 63 -80 63q-28 0 -44 -17t-16 -46zM636 343
q0 29 -16 46t-44 17q-50 0 -80 -63q30 -63 80 -63q28 0 44 17t16 46z" />
    <glyph glyph-name="integral" unicode="&#x222b;" horiz-adv-x="316" 
d="M256 527l-105 -593q-13 -70 -47.5 -105.5t-103.5 -35.5q-50 0 -89 15l17 109q27 -9 49 -9q21 0 30 8.5t12 27.5l104 588q15 82 51.5 114t107.5 32q50 0 89 -14l-18 -108q-26 7 -54 7q-37 0 -43 -36z" />
    <glyph glyph-name="approxequal" unicode="&#x2248;" horiz-adv-x="469" 
d="M188 399q-40 0 -87 -33l-46 97q31 31 60.5 46.5t71.5 15.5q31 0 78 -18.5t68 -18.5q37 0 74 28l46 -96q-45 -58 -118 -58q-31 0 -76.5 18.5t-70.5 18.5zM188 199q-40 0 -87 -33l-46 97q31 31 60.5 46.5t71.5 15.5q31 0 78 -18.5t68 -18.5q37 0 74 28l46 -96
q-45 -58 -118 -58q-31 0 -76.5 18.5t-70.5 18.5z" />
    <glyph glyph-name="notequal" unicode="&#x2260;" horiz-adv-x="478" 
d="M396 583l-33 -87h77v-114h-121l-29 -77h150v-115h-193l-46 -121l-88 34l33 87h-78v115h121l29 77h-150v114h194l46 121z" />
    <glyph glyph-name="lessequal" unicode="&#x2264;" horiz-adv-x="429" 
d="M398 0h-372v110h372v-110zM41 410l300 141l42 -103l-206 -95l206 -95l-42 -103l-300 141v114z" />
    <glyph glyph-name="greaterequal" unicode="&#x2265;" horiz-adv-x="429" 
d="M409 0h-372v110h372v-110zM94 551l300 -141v-114l-300 -141l-42 103l206 95l-206 95z" />
    <glyph glyph-name="lozenge" unicode="&#x25ca;" horiz-adv-x="476" 
d="M302 666l162 -333l-162 -333h-102l-162 333l162 333h102zM170 333l81 -190l81 190l-81 190z" />
    <glyph glyph-name="apple" unicode="&#xf8ff;" horiz-adv-x="746" 
d="M752 333h-333v-333h-333v666h666v-333z" />
    <glyph glyph-name="acute.case" horiz-adv-x="365" 
d="M216 707l-49 84q82 51 131 88l54 -91q-53 -36 -136 -81z" />
    <glyph glyph-name="breve.case" horiz-adv-x="453" 
d="M359 852l85 -29q-42 -116 -156 -116q-48 0 -80.5 31t-36.5 85l89 29q4 -58 42 -58q23 0 35.5 15t21.5 43z" />
    <glyph glyph-name="caron.case" horiz-adv-x="441" 
d="M166 816l63 63q47 -36 66 -54q16 12 86 54l46 -69q-17 -12 -68.5 -47t-81.5 -56q-23 24 -111 109z" />
    <glyph glyph-name="circumflex.case" horiz-adv-x="441" 
d="M421 770l-63 -63q-47 36 -66 54q-16 -12 -86 -54l-46 69q17 12 68.5 47t81.5 56q23 -24 111 -109z" />
    <glyph glyph-name="dieresis.case" horiz-adv-x="432" 
d="M258 712h-106l23 129h106zM407 712h-106l23 129h106z" />
    <glyph glyph-name="dotaccent.case" horiz-adv-x="319" 
d="M297 728l-136 -20l25 147l136 20z" />
    <glyph glyph-name="grave.case" horiz-adv-x="360" 
d="M337 782l-64 -75q-74 49 -116 88l71 84q32 -32 109 -97z" />
    <glyph glyph-name="hungarumlaut.case" horiz-adv-x="484" 
d="M240 707l-80 48q32 53 69 124l90 -50q-45 -75 -79 -122zM401 707l-80 48q32 53 69 124l90 -50q-45 -75 -79 -122z" />
    <glyph glyph-name="macron.case" horiz-adv-x="441" 
d="M410 716h-247l18 103h247z" />
    <glyph glyph-name="ring.case" horiz-adv-x="345" 
d="M348 811q0 -45 -28 -74.5t-77 -29.5q-34 0 -56 20.5t-22 52.5q0 48 28.5 75.5t75.5 27.5q37 0 58 -19.5t21 -52.5zM250 758q18 0 28 13.5t10 34.5q0 26 -25 26q-18 0 -28.5 -13.5t-10.5 -34.5q0 -26 26 -26z" />
    <glyph glyph-name="tilde.case" horiz-adv-x="470" 
d="M307 725q-31 20 -39 20q-19 0 -43 -36l-58 40q27 52 49 73t59 21q28 0 56 -19q29 -20 39 -20q12 0 19.5 7.5t18.5 26.5l58 -37q-23 -46 -46 -70t-57 -24q-30 0 -56 18z" />
    <glyph glyph-name="ampersand.salt" horiz-adv-x="485" 
d="M493 390l-19 -111h-63l-47 -263q-65 -28 -172 -28q-80 0 -127 33t-47 98q0 16 3 34l12 69q10 56 30.5 81t68.5 32q-52 27 -52 83q0 10 2 24l14 79q16 93 60.5 125t133.5 32q95 0 166 -33l-25 -106q-69 26 -137 26q-33 0 -48 -12t-20 -42l-13 -74q-1 -5 -1 -11
q0 -36 43 -36h238zM166 227l-14 -79q-1 -6 -1 -15q0 -41 50 -41q31 0 54 6l32 181h-57q-30 0 -44.5 -11t-19.5 -41z" />
    <glyph glyph-name="zero.tnum" 
d="M460 499l-59 -334q-31 -177 -223 -177q-81 0 -124 38t-43 102q0 19 3 37l59 334q31 179 222 179q83 0 125.5 -38t42.5 -103q0 -20 -3 -38zM196 104q59 0 69 55l62 351q9 52 -50 52q-60 0 -69 -51l-62 -352q-5 -26 8 -40.5t42 -14.5z" />
    <glyph glyph-name="one.tnum" 
d="M13 0l19 113h121l67 381l-102 -53l-45 97l201 128h110l-97 -553h124l-19 -113h-379z" />
    <glyph glyph-name="two.tnum" 
d="M319 264l-145 -148h196l-20 -116h-349l18 105l198 228q41 46 53.5 67t18.5 59l8 46q10 57 -56 57q-57 0 -132 -25l-4 111q65 30 166 30q164 0 164 -130q0 -23 -4 -43l-5 -28q-13 -73 -31 -113.5t-76 -99.5z" />
    <glyph glyph-name="three.tnum" 
d="M111 395h91q35 0 51 13t21 40l10 57q6 33 -10.5 46t-52.5 13q-47 0 -100 -14v107q58 21 153 21q150 0 150 -120q0 -22 -4 -42l-11 -62q-8 -47 -30 -73.5t-65 -39.5q66 -16 66 -88q0 -13 -4 -37l-10 -58q-15 -85 -61 -127.5t-147 -42.5q-78 0 -144 28l27 108
q58 -22 112 -22q39 0 56.5 14t23.5 48l9 52q2 12 2 18q0 44 -53 44h-100z" />
    <glyph glyph-name="four.tnum" 
d="M411 148h-66l-26 -148h-127l26 148h-208l19 108l256 410h151l-71 -404h65zM238 262l42 236l-128 -236h86z" />
    <glyph glyph-name="five.tnum" 
d="M238 175l7 41q2 14 2 19q0 25 -14.5 36t-48.5 11h-116l68 384h300l-21 -116h-165l-27 -152h13q76 0 112.5 -30.5t36.5 -97.5q0 -19 -5 -49l-9 -51q-17 -94 -68.5 -138t-148.5 -44q-86 0 -137 16l24 113q49 -13 103 -13q48 0 68 17t26 54z" />
    <glyph glyph-name="six.tnum" 
d="M188 -12q-77 0 -119 37.5t-42 106.5q0 21 4 44l56 317q17 98 69.5 141.5t157.5 43.5q81 0 145 -24l-23 -107q-55 20 -116 20q-50 0 -71.5 -18t-30.5 -67l-17 -96q39 18 89 18q61 0 95 -31.5t34 -88.5q0 -16 -4 -40l-15 -85q-15 -88 -64.5 -129.5t-147.5 -41.5zM202 98
q55 0 64 49l17 97q9 49 -41 49q-30 0 -60 -14l-23 -131q-1 -7 -1 -14q0 -36 44 -36z" />
    <glyph glyph-name="seven.tnum" 
d="M462 569l-290 -569h-141l285 551h-231l20 115h374z" />
    <glyph glyph-name="eight.tnum" 
d="M453 517l-9 -52q-16 -92 -94 -126q62 -37 62 -106q0 -17 -3 -35l-8 -46q-15 -85 -67 -124.5t-153 -39.5q-75 0 -119.5 34t-44.5 96q0 17 3 35l8 46q9 53 34 86.5t74 53.5q-50 37 -50 100q0 15 3 31l8 47q15 84 60 122.5t146 38.5q153 0 153 -124q0 -18 -3 -37zM277 193
q2 14 2 23q0 20 -10.5 34t-36.5 30q-38 -20 -52.5 -37.5t-19.5 -49.5l-8 -45q-2 -12 -2 -16q0 -40 50 -40q59 0 69 56zM232 527l-11 -62q-2 -10 -2 -19q0 -30 34 -56q30 16 42 32t17 43l10 57q2 12 2 16q0 36 -39 36q-25 0 -36.5 -10.5t-16.5 -36.5z" />
    <glyph glyph-name="nine.tnum" 
d="M286 678q77 0 119 -37.5t42 -106.5q0 -21 -4 -44l-56 -317q-17 -95 -67 -140t-151 -45q-81 0 -149 27l23 106q57 -22 114 -22q49 0 69.5 19t29.5 66l17 96q-39 -18 -89 -18q-61 0 -95 31.5t-34 88.5q0 16 4 40l15 85q16 88 64 129.5t148 41.5zM272 568q-55 0 -64 -49
l-17 -97q-9 -49 41 -49q30 0 60 14l23 131q1 7 1 14q0 36 -44 36z" />
    <glyph glyph-name="dollar.tnum" 
d="M103 -83l15 88q-48 4 -87 23l26 113q52 -21 102 -21t67.5 22.5t17.5 71.5q0 19 -13 32t-57 44q-51 36 -71 66t-20 69q0 107 36 163t114 70l20 111h105l-20 -109q46 -5 93 -26l-27 -111q-61 23 -114 23q-35 0 -51 -16.5t-16 -50.5q0 -6 0.5 -11t1.5 -9t4 -8t4.5 -6.5t8 -8
t10 -8t14 -10.5t16.5 -13q66 -51 83.5 -76t17.5 -72q0 -40 -7 -76t-23.5 -72.5t-49.5 -63t-79 -36.5l-16 -92h-105z" />
    <glyph glyph-name="plus.tnum" 
d="M423 286h-122v-151h-128v151h-122v114h122v151h128v-151h122v-114z" />
    <glyph glyph-name="less.tnum" 
d="M51 280v126l330 155l42 -111l-238 -107l238 -107l-42 -111z" />
    <glyph glyph-name="equal.tnum" 
d="M429 382h-372v114h372v-114zM429 190h-372v115h372v-115z" />
    <glyph glyph-name="greater.tnum" 
d="M429 406v-126l-330 -155l-42 111l238 107l-238 107l42 111z" />
    <glyph glyph-name="cent.tnum" 
d="M136 0l18 98q-74 23 -74 112q0 25 4 45l29 164q22 129 127 151l18 96h112l-18 -95q37 -7 56 -16l-23 -106q-39 13 -79 13q-30 0 -44.5 -12t-19.5 -42l-29 -164q-1 -7 -1 -12q0 -28 29 -28q46 0 95 19l8 -105q-28 -15 -79 -24l-17 -94h-112z" />
    <glyph glyph-name="sterling.tnum" 
d="M37 268l20 112h76l22 125q16 91 62 132t129 41q84 0 136 -27l-23 -104q-41 16 -96 16q-36 0 -52.5 -16.5t-24.5 -58.5l-19 -108h135l-19 -112h-138q-27 -97 -92 -152h222l-20 -116h-365l16 93q79 75 105 175h-74z" />
    <glyph glyph-name="notequal.tnum" 
d="M379 583l-33 -87h77v-114h-121l-29 -77h150v-115h-193l-46 -121l-88 34l33 87h-78v115h121l29 77h-150v114h194l46 121z" />
    <glyph glyph-name="plusminus.tnum" 
d="M411 306h-122v-131h-128v131h-122v114h122v131h128v-131h122v-114zM411 0h-372v110h372v-110z" />
    <glyph glyph-name="lessequal.tnum" 
d="M411 0h-372v110h372v-110zM54 410l300 141l42 -103l-206 -95l206 -95l-42 -103l-300 141v114z" />
    <glyph glyph-name="greaterequal.tnum" 
d="M411 0h-372v110h372v-110zM96 551l300 -141v-114l-300 -141l-42 103l206 95l-206 95z" />
    <glyph glyph-name="yen.tnum" 
d="M54 313l18 102h61l-37 251h130l26 -291l107 291h140l-123 -251h61l-18 -102h-93l-34 -71h114l-18 -102h-115l-24 -140h-134l24 140h-116l18 102h116l1 3l-10 68h-94z" />
    <glyph glyph-name="logicalnot.tnum" 
d="M417 211h-128v151h-244v114h372v-265z" />
    <glyph glyph-name="approxequal.tnum" 
d="M171 399q-40 0 -87 -33l-46 97q31 31 60.5 46.5t71.5 15.5q30 0 77 -18.5t69 -18.5q37 0 74 28l46 -96q-45 -58 -118 -58q-30 0 -76 18.5t-71 18.5zM171 199q-40 0 -87 -33l-46 97q31 31 60.5 46.5t71.5 15.5q30 0 77 -18.5t69 -18.5q37 0 74 28l46 -96q-45 -58 -118 -58
q-30 0 -76 18.5t-71 18.5z" />
    <glyph glyph-name="divide.tnum" 
d="M307 107h-128v127h128v-127zM429 286h-372v114h372v-114zM307 452h-128v127h128v-127z" />
    <glyph glyph-name="Euro.tnum" 
d="M264 471l-1 -5h157l-19 -98h-155l-13 -71h157l-19 -98h-155l-1 -6q-4 -22 -4 -35q0 -30 16.5 -43t57.5 -13q53 0 91 11l2 -109q-48 -16 -123 -16q-88 0 -132.5 41.5t-44.5 111.5q0 23 4 47l2 11h-64l19 98h62l13 71h-64l19 98h62l3 16q20 107 66 151.5t148 44.5
q71 0 130 -23l-23 -109q-49 18 -99 18q-48 0 -64 -17.5t-28 -75.5z" />
    <glyph glyph-name="multiply.tnum" 
d="M57 448l81 81l105 -105l105 105l81 -81l-105 -105l105 -105l-81 -81l-105 105l-105 -105l-81 81l105 105z" />
    <glyph glyph-name="minus.tnum" 
d="M417 286h-348v114h348v-114z" />
    </font>
</defs>
</svg>
